<svg xmlns="http://www.w3.org/2000/svg" data-name="Layer 1" width="751.13137" height="558.07425" viewBox="0 0 751.13137 558.07425" xmlns:xlink="http://www.w3.org/1999/xlink"><path d="M604.26943,701.3509a3.61324,3.61324,0,0,1-2.61866-6.26263c.09111-.36212.15647-.62216.24758-.98429a9.70742,9.70742,0,0,0-17.99686-.16974c-4.28226,10.02341-9.82453,20.4-7.06825,31.44012-18.206-38.58538-12.01459-86.582,14.89138-119.57967,7.43714-4.09684,13.46508-11.37558,15.03439-19.82719-3.6807,1.24714-8.26984-1.74675-5.50237-5.62382,1.19955-1.48179,2.41075-2.95192,3.6102-4.4338-13.98172-14.89039-30.6407,8.512-15.25087,28.60947a115.847,115.847,0,0,0-13.01133,20.35185,48.70929,48.70929,0,0,0-2.908-22.62447c-2.78346-6.71479-8.00064-12.37-12.595-18.17495-5.58607-7.07309-17.083-3.80994-17.83469,5.16592,5.15526,1.69443,5.825,9.14117-.072,10.16037,1.54456,16.69795,12.45345,32.04321,27.47828,39.36634a116.2988,116.2988,0,0,0-6.35538,48.61141c-2.65207-19.25-23.3157-23.92148-37.7586-31.57247a5.626,5.626,0,0,0-8.5801,5.69851,32.49508,32.49508,0,0,1,5.69583,3.00488,4.91123,4.91123,0,0,1-2.28162,8.96546c7.28014,18.018,26.10227,30.11727,45.43371,30.04916a119.56344,119.56344,0,0,0,8.03167,23.447h28.69167c.10291-.3188.19543-.64792.288-.96672a32.59928,32.59928,0,0,1-7.93916-.473c7.02637-8.31909,12.46032-12.56337,8.371-24.17721Z" transform="translate(-224.43432 -170.96287)" fill="#f2f2f2"/><path d="M755.34311,187.11424H507.55453a8.07568,8.07568,0,0,1,0-16.15137H755.34311a8.07568,8.07568,0,0,1,0,16.15137Z" transform="translate(-224.43432 -170.96287)" fill="#e6e6e6"/><path d="M755.34311,230.11424H507.55453a8.07568,8.07568,0,0,1,0-16.15137H755.34311a8.07568,8.07568,0,0,1,0,16.15137Z" transform="translate(-224.43432 -170.96287)" fill="#e6e6e6"/><path d="M766.16848,489.89251l-108.01627,2.7883a8.5095,8.5095,0,0,1-8.71651-8.27782l-1.3878-53.76188a8.50951,8.50951,0,0,1,8.27783-8.71651L764.342,419.13629a8.50952,8.50952,0,0,1,8.71652,8.27783L774.4463,481.176A8.5095,8.5095,0,0,1,766.16848,489.89251Z" transform="translate(-224.43432 -170.96287)" fill="#fff"/><path d="M766.19431,490.89214l-108.01626,2.7883a9.5108,9.5108,0,0,1-9.742-9.25169l-1.3878-53.76187a9.51081,9.51081,0,0,1,9.25169-9.742l108.01626-2.7883a9.51081,9.51081,0,0,1,9.742,9.25168l1.38779,53.76188A9.51081,9.51081,0,0,1,766.19431,490.89214ZM656.35157,422.92422a7.50821,7.50821,0,0,0-7.304,7.69105l1.3878,53.76187a7.50821,7.50821,0,0,0,7.691,7.304L766.1427,488.8928a7.5082,7.5082,0,0,0,7.304-7.691l-1.3878-53.76187a7.5082,7.5082,0,0,0-7.691-7.304Z" transform="translate(-224.43432 -170.96287)" fill="#ccc"/><path d="M700.12587,475.34069a3.63319,3.63319,0,0,1-1.764-.41114,3.586,3.586,0,0,1-1.9652-3.13456l-.77451-30.00382a3.63311,3.63311,0,0,1,5.50018-3.20974l28.84895,14.2672a3.63333,3.63333,0,0,1,.15827,6.13145L702.05516,474.7167A3.61588,3.61588,0,0,1,700.12587,475.34069Z" transform="translate(-224.43432 -170.96287)" fill="#000000"/><circle cx="407.0145" cy="146.00549" r="47" fill="#e6e6e6"/><path d="M631.44882,342.25206a2.0001,2.0001,0,0,1-2-2V293.96837a2,2,0,1,1,4,0v46.28369A2.0001,2.0001,0,0,1,631.44882,342.25206Z" transform="translate(-224.43432 -170.96287)" fill="#fff"/><path d="M654.59042,319.11h-46.2832a2,2,0,0,1,0-4h46.2832a2,2,0,0,1,0,4Z" transform="translate(-224.43432 -170.96287)" fill="#fff"/><path d="M458.44882,468.96837h-80v-90h80C449.71164,390.71547,454.03512,429.74766,458.44882,468.96837Z" transform="translate(-224.43432 -170.96287)" fill="#ffb6b6"/><polygon points="234.478 527.659 248.878 527.659 255.729 472.114 234.475 472.115 234.478 527.659" fill="#ffb6b6"/><path d="M478.10448,699.91838V690.156l-3.78573.23128-15.41045.91294-3.56655.2191-2.72665,32.6956-.14606,1.75285H462.694l.32869-1.74067,1.485-7.91217,3.83439,7.91217.83991,1.74067h27.10835a6.12512,6.12512,0,0,0,6.08628-6.09847C503.52082,714.52547,480.97719,702.97371,478.10448,699.91838Z" transform="translate(-224.43432 -170.96287)" fill="#2f2e41"/><polygon points="65.771 511.985 78.296 519.091 111.665 474.162 93.18 463.674 65.771 511.985" fill="#ffb6b6"/><path d="M306.26418,693.54l4.80818-8.48432-3.38394-1.66764-13.86458-6.80443-3.21357-1.58242-15.7878,23.11571-3.71269,5.42892,4.19955,2.38585,4.68649,2.6658,6.354-7.49827-.706,10.69966,22.14192,12.57429h.01219l1.42424.80336a6.09621,6.09621,0,0,0,8.30163-2.30063C321.15129,718.78587,307.25015,697.62993,306.26418,693.54Z" transform="translate(-224.43432 -170.96287)" fill="#2f2e41"/><path d="M375.44882,425.96837c-19.29694,12.78723-26.39972,135.64019-21.38629,133.63452l-45.48327,84.76473L373.3181,673.3874,415.885,525.58556l7.09449,54.39108-9.45932,86.31627,41.84612,10.11978,28.944-2.06743c-7.521-102.88745-14.2992-211.40192-29.86145-253.37689Z" transform="translate(-224.43432 -170.96287)" fill="#2f2e41"/><path d="M435.39927,280.1285s-21.42338-2.771-27.95045-.16013c-2.32234.92894-4.64479,9.45919-9,12-7.88537,4.60028-14.32031,3.82513-14.32031,3.82513,3.08014,39.21863,2.91259,69.64233-15.51526,126.45349a8.39819,8.39819,0,0,0,12.129,7.62433l75.70655-5.903,8.975-47.2391,11.74872-24.803-15.22165-31.33-1.30536-18.27581-19.1967-9.35215Z" transform="translate(-224.43432 -170.96287)" fill="#000000"/><path id="a2192116-6b97-466f-8b13-d9817c84884d-32" data-name="Path 9" d="M444.8571,271.45864l.02316.00206a4.6613,4.6613,0,0,0,5.04509-4.24293L452.18,241.30248a34.76347,34.76347,0,0,0-1.5562-13.75389,35.32419,35.32419,0,0,0-16.87324-20.19526,34.78365,34.78365,0,0,0-13.36125-3.98948c-19.13564-1.69508-26.09778,2.33417-37.71734,31.57893s-2.25809,25.95476-2.25809,25.95476a4.669,4.669,0,0,0,.20969,1.85022,4.74541,4.74541,0,0,0,2.27324,2.71286,4.68443,4.68443,0,0,0,1.78658.53288c22.6463,5.59676,45.49889,11.49457,60.17757,5.46548Z" transform="translate(-224.43432 -170.96287)" fill="#2f2e41"/><path id="ed28a24e-420e-40bb-8d99-8be0d936d38f-33" data-name="Ellipse 1" d="M402.48731,228.02405a25.642,25.642,0,0,0,26.33776,39.36752,25.3433,25.3433,0,0,0,16.24561-10.8457,25.642,25.642,0,0,0-26.31838-39.35613A25.34327,25.34327,0,0,0,402.48722,228.025Z" transform="translate(-224.43432 -170.96287)" fill="#ffb6b6"/><path id="aaaefc33-4d64-40b9-9ad5-5bc57b25f5f9-34" data-name="Path 10" d="M460.216,244.12664a27.5,27.5,0,0,0-1.231-10.87771c-.31483-8.59467-2.86059-16.36439-13.3432-15.968a27.51218,27.51218,0,0,0-10.497-3.145l-5.18464-.47727q-.08735-.0081-.17473-.01566a27.45354,27.45354,0,0,0-29.71434,24.989l-.04516.51908,10.969.999,4.65079-10.12729-.16288,10.53811,5.66528.51812,2.3454-5.10945-.08092,5.31325c8.45529,7.34776,21.20486,7.65128,36.75338,3.36351Z" transform="translate(-224.43432 -170.96287)" fill="#2f2e41"/><path id="a25eee40-fd94-4a6a-9f0d-d3f65b8e441c-35" data-name="Path 13" d="M425.315,268.93563a4.587,4.587,0,0,1-.41086,2.49195,4.69116,4.69116,0,0,1-.71262,1.09753,4.745,4.745,0,0,1-.82983.74967,4.65344,4.65344,0,0,1-3.10764.83289q-.103-.00993-.20559-.02371t-.20483-.03237q-.10326-.01771-.205-.04113t-.2042-.05075l-3.83293-1.04666-4.36707-11.9268-.91326,10.49708-17.429-4.72811L396.76753,222.21l29.67124,2.725-.808.78845a20.49342,20.49342,0,0,0-5.49662,9.64421,33.40639,33.40639,0,0,0-.7711,11.33909,60.24258,60.24258,0,0,0,2.19883,11.33063,88.78607,88.78607,0,0,0,3.41569,9.6346A4.68461,4.68461,0,0,1,425.315,268.93563Z" transform="translate(-224.43432 -170.96287)" fill="#2f2e41"/><path d="M374.70479,573.29866,352.91068,442.23545a10.15441,10.15441,0,0,1,8.34175-11.66933l98.98182-16.4594a10.1544,10.1544,0,0,1,11.66928,8.34176l21.79411,131.06321A10.15441,10.15441,0,0,1,485.356,565.181l-98.98182,16.45939A10.15442,10.15442,0,0,1,374.70479,573.29866Z" transform="translate(-224.43432 -170.96287)" fill="#e6e6e6"/><path d="M375.71458,532.44955l-14.01123-84.25932a9.50973,9.50973,0,0,1,7.8123-10.92869l85.06653-14.14546a9.51014,9.51014,0,0,1,10.92916,7.81222l19.3938,116.62843a9.51014,9.51014,0,0,1-7.81278,10.92876l-52.69695,8.76282A42.36082,42.36082,0,0,1,375.71458,532.44955Z" transform="translate(-224.43432 -170.96287)" fill="#fff"/><path d="M379.38608,469.40977a9.29268,9.29268,0,0,1,7.63414-10.67945l59.01049-9.81268a9.28254,9.28254,0,0,1,3.04531,18.3136l-59.01048,9.81267A9.29267,9.29267,0,0,1,379.38608,469.40977Z" transform="translate(-224.43432 -170.96287)" fill="#000000"/><path d="M384.12323,497.89759a9.29268,9.29268,0,0,1,7.63415-10.67945l59.01048-9.81268a9.28254,9.28254,0,0,1,3.04532,18.3136l-59.01049,9.81267A9.29268,9.29268,0,0,1,384.12323,497.89759Z" transform="translate(-224.43432 -170.96287)" fill="#000000"/><path d="M388.86039,526.38541a9.29268,9.29268,0,0,1,7.63414-10.67945l59.01049-9.81268a9.28254,9.28254,0,0,1,3.04531,18.3136l-59.01048,9.81267A9.29267,9.29267,0,0,1,388.86039,526.38541Z" transform="translate(-224.43432 -170.96287)" fill="#000000"/><path d="M362.933,455.91513a10.5487,10.5487,0,0,0-1.65427-15.98l10.38747-51.54129-13.54987-6.37824-11.88977,61.30658a10.53391,10.53391,0,0,0,16.70644,12.593Z" transform="translate(-224.43432 -170.96287)" fill="#ffb6b6"/><path d="M384.44882,295.96837s-23.81777,8.963-25.12319,22.01715-4.30542,24.68952-3,29.9112-4.48765,11.15539-1.87681,15.07165-3.65026,5.20417-1.03945,11.73123,3.91623,7.83249,2.61084,9.13791-5.57139,28.13086-5.57139,28.13086l18.54173,4.11536,24.192-55.01947Z" transform="translate(-224.43432 -170.96287)" fill="#000000"/><path d="M470.96461,455.91513a10.54869,10.54869,0,0,1,1.65427-15.98l-10.38747-51.54129,13.54987-6.37824,11.88977,61.30658a10.53391,10.53391,0,0,1-16.70644,12.593Z" transform="translate(-224.43432 -170.96287)" fill="#ffb6b6"/><path d="M455.42381,301.01513a13.912,13.912,0,0,1,11.74875,7.83248c3.91623,7.83249,18.58168,57.20453,17.27626,61.12076s4.61036,16.56366,1.99952,19.1745-4.99952,17.8255-4.99952,17.8255l-19.02507,4.36655-6.13791-58.10324Z" transform="translate(-224.43432 -170.96287)" fill="#000000"/><path d="M904.90414,479.80622a9.099,9.099,0,0,1,7.71423-11.6257l7.14192-31.53623,11.63778,12.12018-8.56625,28.08921a9.14832,9.14832,0,0,1-17.92762,2.95253Z" transform="translate(-224.43432 -170.96287)" fill="#a0616a"/><path d="M922.06471,285.51967l.57228,2.71047,29.81183,91.2015-20.053,81.27312L915.98232,453.03l3.86957-72.0569c-29.45767-39.33126-38.12195-53.5672-35.55335-94.5029Z" transform="translate(-224.43432 -170.96287)" fill="#e6e6e6"/><polygon points="672.225 541.537 657.56 541.536 650.583 484.968 672.228 484.97 672.225 541.537" fill="#a0616a"/><path d="M897.17575,727.79834l-45.0978-.0017v-.57033a17.55428,17.55428,0,0,1,17.55332-17.553h.00109l8.23769-6.24954,15.36971,6.25049,3.93674.00014Z" transform="translate(-224.43432 -170.96287)" fill="#2f2e41"/><polygon points="591.631 541.537 576.966 541.536 569.989 484.968 591.634 484.97 591.631 541.537" fill="#a0616a"/><path d="M816.58177,727.79834l-45.0978-.0017v-.57033a17.55428,17.55428,0,0,1,17.55332-17.553h.00108l8.23769-6.24954,15.36972,6.25049,3.93674.00014Z" transform="translate(-224.43432 -170.96287)" fill="#2f2e41"/><path d="M914.49433,453.02664s5.7849,13.73919,0,36.15574-7.23113,78.8195-7.23113,78.8195l-9.2731,126.65659H873.4615l-.90785-91.22391-12.293-98.34358-24.58586,93.28171s-9.40048,69.419-13.01607,72.31144-5.26264,23.09832-5.26264,23.09832c-7.43151,1.11355-18.736-1.79251-25.40461-5.25613,2.74816-1.18829,14.39784-232.07943,14.75873-235.49969C808.16167,439.65016,914.49433,453.02664,914.49433,453.02664Z" transform="translate(-224.43432 -170.96287)" fill="#2f2e41"/><path d="M713.54038,428.73929a9.099,9.099,0,0,0,9.811-9.92017l29.42086-13.4147L738.536,396.47884,712.78,410.586a9.14832,9.14832,0,0,0,.76036,18.15321Z" transform="translate(-224.43432 -170.96287)" fill="#a0616a"/><path d="M828.082,316.85461l9.98956,3.86064L810.07822,376.3855l-73.31314,40.40577-5.497-17.26518,55.563-46.04264c19.43493-56.54084,31.11263-81.80356,45.13732-81.45743Z" transform="translate(-224.43432 -170.96287)" fill="#e6e6e6"/><path d="M819.16435,284.90662a20.595,20.595,0,0,1,21.10179-14.992q.11229.00767.224.01616c6.24658.47467,14.24138-14.68192,22.52144-14.037,5.826.45377,11.79319.92394,17.392,1.37427,4.98932.40131,9.6861,16.55526,13.72968,16.89943,7.63819.65013,9.44155,1.15258,9.98742,1.33453,2.16935.72312,10.51383,1.29417,15.77,7.42632,2.353,2.74513,11.70841,28.7294,5.92352,56.20776S913.411,402.20942,913.411,402.20942s5.78368,17.19236,2.8912,24.42352,2.89248,12.293,2.89248,15.1854-1.44624,17.35475-1.44624,17.35475-103.01041,10.93292-112.08272,0c-.2976-.35864,12.03322-60.294,6.928-108.47619C809.79124,324.24746,815.01455,299.46994,819.16435,284.90662Z" transform="translate(-224.43432 -170.96287)" fill="#e6e6e6"/><circle cx="646.82859" cy="52.02389" r="29.75958" fill="#a0616a"/><path d="M850.85645,188.62712c2.13287-.06336,1.4007-4.08367,3.11909-5.36616q.01256.05835.026.11649a4.18843,4.18843,0,0,0,8.00415.34149,6.36568,6.36568,0,0,1,4.04172-4.2401c.107,3.72632,2.92567,6.96042,6.28827,8.56987s7.19667,1.87728,10.92418,1.93242c3.72751.05506,7.50867-.06974,11.12331.84244,3.61456.91211,7.13042,3.05669,8.67474,6.44968,1.54438,3.393.44249,8.06439-2.93442,9.64354,2.616.01393,4.83585,2.17267,5.7404,4.62739.90448,2.45479.76649,5.15569.56722,7.76418-.73522,9.62316-2.52772,19.98361-9.535,26.62019-5.34051,5.058-12.98465,7.09559-20.34013,7.06617-7.35549-.02949-6.06218-.70557-13.17415-2.58292,0,0-6.76152-19.38364-5.05891-21.29049,1.70261-1.90677,3.11679-4.34682,2.80865-6.88454s-3.03534-4.811-5.4021-3.845c.398-1.01734.69779-1.21113.88558-1.15948a8.99367,8.99367,0,0,1-.31273-.88432,10.06353,10.06353,0,0,0-6.28494-6.66466,7.80439,7.80439,0,0,0-8.53015,2.58152C833.69973,204.96126,838.53113,188.99313,850.85645,188.62712Z" transform="translate(-224.43432 -170.96287)" fill="#2f2e41"/><path d="M974.375,728.72979l-748.75.30734a1.19069,1.19069,0,0,1,0-2.38137l748.75-.30733a1.19068,1.19068,0,1,1,0,2.38136Z" transform="translate(-224.43432 -170.96287)" fill="#cacaca"/></svg>