<svg xmlns="http://www.w3.org/2000/svg" viewBox="0 0 500 500"><g id="freepik--background-complete--inject-20"><path d="M438.37,262.58c-5.28,0-137-.92-174.15-.92-2.6,0,.69-4.5,2.12-4.82,4.57-1,9.34-1,14-1.53A46,46,0,0,0,293.65,252c3.66-1.55,7.32-3.33,11.28-3.95,7.66-1.2,14.38,2.95,21.57,4.78A16.31,16.31,0,0,0,339.57,251c3.32-2,6.34-4.39,9.81-6.15a53.9,53.9,0,0,1,43-2,50.33,50.33,0,0,1,9.41,4.82c3.51,2.3,6.54,5.25,10.06,7.52,7.8,5.05,17.44,3.41,25.95,6.3C438.3,261.7,438.83,262.58,438.37,262.58Z" style="fill:#ebebeb"></path><path d="M179.93,110.62c-7,0-124.37.77-131.75.54-.53,0-.82-.8-.29-1.06,4.65-2.3,9.93-1.84,14.76-3.47,2.84-1,4.59-2.82,6.56-4.95a13.8,13.8,0,0,1,6.11-4,12.93,12.93,0,0,1,6.65-.2c2.39.56,4.45,1.93,6.73,2.79,5.64,2.13,11.12.1,15.14-4.07,3.33-3.44,6.59-6.69,11.1-8.54a14.78,14.78,0,0,1,11.77-.16c4.3,1.95,7.26,5.87,11.3,8.23,4.8,2.81,10.53,2.14,15.83,3s9.36,5.3,14,7.87a9.88,9.88,0,0,0,5.07,1.57c1,0,2.05-.31,3.08-.43,1.6-.2,3.12-.16,4.19,1.18C180.44,109.24,180.39,110.62,179.93,110.62Z" style="fill:#ebebeb"></path><path d="M424.18,137.91c-5.1,0-90.81.57-96.2.39-.38,0-.59-.58-.21-.77,3.4-1.68,7.25-1.34,10.78-2.53,2.08-.7,3.35-2.06,4.79-3.61a10,10,0,0,1,4.46-2.92,9.43,9.43,0,0,1,4.86-.15,42,42,0,0,1,4.91,2c4.11,1.55,8.12.08,11.05-3,2.43-2.51,4.81-4.88,8.11-6.23a10.74,10.74,0,0,1,8.59-.12c3.14,1.42,5.3,4.29,8.25,6,3.5,2,7.69,1.56,11.55,2.18S412,133.1,415.35,135a7.18,7.18,0,0,0,3.7,1.14,21.75,21.75,0,0,0,2.25-.32,3.08,3.08,0,0,1,3.06.87C424.55,136.91,424.51,137.91,424.18,137.91Z" style="fill:#ebebeb"></path><path d="M169.11,203.82c-5.1,0-90.81.56-96.2.39-.38,0-.59-.58-.21-.77,3.4-1.68,7.25-1.34,10.78-2.53,2.08-.7,3.35-2.06,4.79-3.62a10,10,0,0,1,4.46-2.91,9.43,9.43,0,0,1,4.86-.15,40.34,40.34,0,0,1,4.91,2c4.12,1.55,8.12.07,11.06-3,2.42-2.51,4.8-4.88,8.1-6.24a10.78,10.78,0,0,1,8.59-.12c3.14,1.43,5.3,4.29,8.25,6,3.5,2,7.69,1.56,11.55,2.18s6.84,3.87,10.23,5.74A7.22,7.22,0,0,0,164,202c.76,0,1.5-.23,2.25-.32a3.09,3.09,0,0,1,3.06.86C169.48,202.81,169.44,203.82,169.11,203.82Z" style="fill:#ebebeb"></path><path d="M258.32,168.85c-.1.28-135.09,0-133.39,0,.78,0-1.18-1.17-.42-1.54,4.4-2.18,9.21-2.24,14-2.68a21.52,21.52,0,0,0,8.17-2c2.55-1.33,4.13-3.64,5.94-5.78a25.37,25.37,0,0,1,23-8.73c9.6,1.5,17.17,8.81,26.78,10.16,5.78.81,11.24-1.43,16.89-2.22A20.68,20.68,0,0,1,232,158.39c3.05,1.51,5.86,2.78,9.3,3,2.65.19,5.3-.11,7.95-.14a17.8,17.8,0,0,1,11.69,4.67C261.37,166.32,262.73,168.85,258.32,168.85Z" style="fill:#ebebeb"></path><path d="M359.19,76.34a40.32,40.32,0,0,1,12.66,0,40.32,40.32,0,0,1-12.66,0Z" style="fill:#ebebeb"></path><path d="M391.31,56.82a87.58,87.58,0,0,1-.5-9.83,83.15,83.15,0,0,1,.5-9.84,83.15,83.15,0,0,1,.5,9.84A87.58,87.58,0,0,1,391.31,56.82Z" style="fill:#ebebeb"></path><path d="M381.57,59.44a36.28,36.28,0,0,1-3.64-5.29,37.12,37.12,0,0,1-2.77-5.79,36.28,36.28,0,0,1,3.64,5.29A37.55,37.55,0,0,1,381.57,59.44Z" style="fill:#ebebeb"></path><path d="M374.44,66.59a87,87,0,0,1-8.76-4.48,85.11,85.11,0,0,1-8.27-5.35,96.11,96.11,0,0,1,17,9.83Z" style="fill:#ebebeb"></path><path d="M410.84,76.28a35.55,35.55,0,0,1,6.33-.5,34.64,34.64,0,0,1,6.33.5,35.55,35.55,0,0,1-6.33.5A36.51,36.51,0,0,1,410.84,76.28Z" style="fill:#ebebeb"></path><path d="M408.21,66.54a97,97,0,0,1,17-9.84A83.27,83.27,0,0,1,417,62.05,85,85,0,0,1,408.21,66.54Z" style="fill:#ebebeb"></path><path d="M401.06,59.41a41,41,0,0,1,6.38-11,35.94,35.94,0,0,1-2.75,5.77A35.6,35.6,0,0,1,401.06,59.41Z" style="fill:#ebebeb"></path><path d="M391.34,95.85a83,83,0,0,1,.5,9.83,83,83,0,0,1-.5,9.83,96.88,96.88,0,0,1,0-19.66Z" style="fill:#ebebeb"></path><path d="M401.09,93.22a37.11,37.11,0,0,1,3.63,5.3,36.69,36.69,0,0,1,2.77,5.79,40.55,40.55,0,0,1-6.4-11.09Z" style="fill:#ebebeb"></path><path d="M408.21,86.07a98.77,98.77,0,0,1,17,9.83,83.13,83.13,0,0,1-8.77-4.48A85,85,0,0,1,408.21,86.07Z" style="fill:#ebebeb"></path><path d="M374.44,86.13a85,85,0,0,1-8.26,5.35A85.07,85.07,0,0,1,357.41,96a85.11,85.11,0,0,1,8.27-5.35A87,87,0,0,1,374.44,86.13Z" style="fill:#ebebeb"></path><path d="M381.59,93.25a41.22,41.22,0,0,1-6.38,11.06A35.26,35.26,0,0,1,378,98.53,35.81,35.81,0,0,1,381.59,93.25Z" style="fill:#ebebeb"></path><circle cx="391.33" cy="76.33" r="15.61" style="fill:#ebebeb"></circle></g><g id="freepik--Floor--inject-20"><polygon points="34.95 470.99 88.71 470.75 142.48 470.66 250 470.49 357.52 470.66 411.29 470.75 465.05 470.99 411.29 471.24 357.52 471.33 250 471.49 142.48 471.32 88.71 471.24 34.95 470.99" style="fill:#263238"></polygon></g><g id="freepik--Trees--inject-20"><path d="M143.74,273.9s-.5,46.09,14.81,95.43c8.82,28.45,27.34,58,42.82,80.4H175.62s-22.21-55-27.13-79.77c-11-55.14-6.68-96.85-6.68-96.85Z" style="fill:#FFA500"></path><path d="M143.74,273.9s-.5,46.09,14.81,95.43c8.82,28.45,27.34,58,42.82,80.4H175.62s-22.21-55-27.13-79.77c-11-55.14-6.68-96.85-6.68-96.85Z" style="opacity:0.30000000000000004"></path><path d="M168.92,432.55l.22.6q1.88,0,3.75-.06c2.14,0,4.28-.11,6.43-.24-2.15-.13-4.29-.19-6.43-.24C171.57,432.58,170.24,432.56,168.92,432.55Z" style="fill:#FFA500"></path><path d="M171.18,423.07c1.07.06,2.14.1,3.22.15l3.21.08c2.14.07,4.29.07,6.43.08h.18c-.13-.21-.26-.42-.38-.63-2.08,0-4.15,0-6.23.08l-3.21.08C173.32,423,172.25,423,171.18,423.07Z" style="fill:#FFA500"></path><path d="M174.51,418.9c1.07.07,2.15.1,3.22.15l3.21.09.75,0-.3-.51h-.45l-3.21.09C176.66,418.8,175.58,418.83,174.51,418.9Z" style="fill:#FFA500"></path><path d="M155.45,394.87c0,.13.08.25.13.37,1.42,0,2.83-.09,4.25-.18C158.37,395,156.91,394.92,155.45,394.87Z" style="fill:#FFA500"></path><path d="M153.63,389.16c.05.19.12.37.18.56l2.1,0c2.14-.05,4.28-.11,6.42-.24-2.14-.13-4.28-.19-6.42-.24Z" style="fill:#FFA500"></path><path d="M147.24,363.34a2,2,0,0,0,.06.35c1.29,0,2.6-.09,3.89-.17C149.87,363.44,148.56,363.39,147.24,363.34Z" style="fill:#FFA500"></path><path d="M144.53,338.1l3.21.15,2.95.08-.09-.46-2.86.08C146.67,338,145.6,338,144.53,338.1Z" style="fill:#FFA500"></path><path d="M141.56,315.12c0,.07,0,.14,0,.2l1.91-.1Z" style="fill:#FFA500"></path><path d="M147,335c1,.07,2.06.1,3.09.15l-.06-.3C149,334.9,148,334.93,147,335Z" style="fill:#FFA500"></path><path d="M176.05,244.4l-7.7-1.86,6.84,4.73a30.8,30.8,0,0,1-5.06,9.18l-7.7-3.45,5.44,6a32.74,32.74,0,0,1-2.79,2.53l-4.53-2.26,2.54,3.76a42.92,42.92,0,0,1-6.32,3.69l-3.67-4.08,2.09,4.8a66.86,66.86,0,0,1-13.49,4.15l31.83-55.28a51.14,51.14,0,0,1,3.28,13l-3.37-.05,3.56,1.86c.12,1.42.18,2.89.16,4.41l-8-.83,7.79,4.51A37.72,37.72,0,0,1,176.05,244.4Z" style="fill:#455a64"></path><path d="M187.63,272.78l-2.91-3.5,1.52,4.8a24.35,24.35,0,0,1-5.17,3.44l-3.39-6.44.27,7.72a27.58,27.58,0,0,1-3.53.89l-2.23-4.64-.2,5a33.47,33.47,0,0,1-6.31-.06l-1.21-8.08-2.1,7.61c-1.06-.2-2.15-.44-3.28-.73v-5.31l-2.8,4.5a77.14,77.14,0,0,1-14.36-6.41l52-8.69A27.24,27.24,0,0,1,187.63,272.78Z" style="fill:#37474f"></path><path d="M141.92,271.63a90.7,90.7,0,0,1-11.83-15.45l5.67-3.37L128.82,254a60.51,60.51,0,0,1-2.74-5.64l5.78-3.82-7,.75a48.87,48.87,0,0,1-1.45-4.73l10-3.63-11.08-1.72a43.62,43.62,0,0,1-.19-10.36h0l13.08-2.95-12.29-2c.18-.88.4-1.75.64-2.59l7.07.27-6.34-2.64a47.5,47.5,0,0,1,2.5-6L137,211l-8.47-5.18a53.41,53.41,0,0,1,11.58-14Z" style="fill:#37474f"></path><path d="M123.27,264.46l2.16-5.62-4.51,4.38h0c-.87-.47-1.75-1-2.62-1.49l2.35-3.9-3.72,3.06c-1.4-.88-2.79-1.82-4.14-2.81l3.6-4.67-5.89,2.89a45.69,45.69,0,0,1-6.76-6.72l7.29-6L101.85,247a31.27,31.27,0,0,1-3.51-6.86l7.2-4.76-8.06,2a28.5,28.5,0,0,1-.72-4.08l10.81-4.8-10.85-.65a34.3,34.3,0,0,1,.93-5.51l7.77-.48-7-2.13a53.19,53.19,0,0,1,5.49-11.6s10.93,43.08,38,63.48A97.83,97.83,0,0,1,123.27,264.46Z" style="fill:#455a64"></path><path d="M127.77,276.66,126.48,274l.47,2.8c-.78.1-1.55.16-2.29.19l-.9-3.57-1,3.59a26.69,26.69,0,0,1-3.17-.28l.5-5.91-2.86,5.41a23.25,23.25,0,0,1-6.17-2.61l1-4.51-2.37,3.59a25,25,0,0,1-2.2-1.73l2.91-4.84-4.47,3.38a33.1,33.1,0,0,1-3.28-3.88l2.6-2.92L102,264.64c-.35-.52-.68-1-1-1.52l1.76-1.61-2.33.64A38.4,38.4,0,0,1,97,254.61c14.56,14.23,45,17,45,17A43.94,43.94,0,0,1,127.77,276.66Z" style="fill:#37474f"></path><path d="M167.77,293.17l-.78-2.48-.31,2.59a21.06,21.06,0,0,1-3,0L164,289l-1.71,4.14a19.38,19.38,0,0,1-4.37-1.15l.65-4.22-2.7,3.3a21.08,21.08,0,0,1-2.64-1.64l1.76-3.22-2.79,2.43a22.65,22.65,0,0,1-1.89-1.7l2.45-3.88-4.34,1.81c-.57-.7-1.14-1.44-1.7-2.24l2.07-1.78-2.71.82a51.06,51.06,0,0,1-5-10.2s18.87,16.2,34.9,19.26A23.37,23.37,0,0,1,167.77,293.17Z" style="fill:#455a64"></path><path d="M133.89,288.74l-2.8-2.76,1.65,3.92a17.32,17.32,0,0,1-2.66,2l-2.36-2.21,1.28,2.83a13.86,13.86,0,0,1-1.42.65L125,289.3l.74,4.52a17.23,17.23,0,0,1-4.72.53l-1.43-3.28-.17,3.16c-.73-.08-1.43-.2-2.1-.34l-.51-3.2-.7,2.9a24.39,24.39,0,0,1-6.4-2.72c17.08-2.3,31.78-17.59,31.78-17.59C139.52,280.59,136.85,285.51,133.89,288.74Z" style="fill:#455a64"></path><path d="M149.24,283.71a6.39,6.39,0,1,1-4.93-7.58A6.39,6.39,0,0,1,149.24,283.71Z" style="fill:#FFA500"></path><path d="M149.24,283.71a6.39,6.39,0,1,1-4.93-7.58A6.39,6.39,0,0,1,149.24,283.71Z" style="opacity:0.4"></path><path d="M145,277a6.4,6.4,0,1,1-4.94-7.58A6.41,6.41,0,0,1,145,277Z" style="fill:#FFA500"></path><path d="M145,277a6.4,6.4,0,1,1-4.94-7.58A6.41,6.41,0,0,1,145,277Z" style="opacity:0.30000000000000004"></path><path d="M151.51,277.21a6.39,6.39,0,1,1-4.93-7.58A6.39,6.39,0,0,1,151.51,277.21Z" style="fill:#FFA500"></path><path d="M151.51,277.21a6.39,6.39,0,1,1-4.93-7.58A6.39,6.39,0,0,1,151.51,277.21Z" style="opacity:0.2"></path><path d="M87.18,319.2A205.77,205.77,0,0,0,101.27,390c8.4,21.13,62.1,43,76.84,59.69H153.59s-57.22-40.85-61.9-59.21c-10.42-40.94-6.36-71.9-6.36-71.9Z" style="fill:#FFA500"></path><path d="M87.18,319.2A205.77,205.77,0,0,0,101.27,390c8.4,21.13,62.1,43,76.84,59.69H153.59s-57.22-40.85-61.9-59.21c-10.42-40.94-6.36-71.9-6.36-71.9Z" style="opacity:0.30000000000000004"></path><path d="M136.71,437l.56.44,2.9,0c2,0,4.09-.09,6.12-.18-2-.1-4.08-.14-6.12-.18Z" style="fill:#FFA500"></path><path d="M141.2,429.93c1,.06,2,.08,3.05.13l3.06.05c1.31,0,2.63,0,3.95.05-.25-.15-.49-.29-.73-.45-1.07,0-2.14,0-3.22.05l-3.06.06C143.23,429.86,142.21,429.88,141.2,429.93Z" style="fill:#FFA500"></path><path d="M148.07,431.5l3.06.12,2.57.06-.53-.34-2,.05Z" style="fill:#FFA500"></path><path d="M104.77,409a3.07,3.07,0,0,0,.25.26c1.22,0,2.43-.07,3.65-.12C107.38,409.08,106.07,409.05,104.77,409Z" style="fill:#FFA500"></path><path d="M100.85,404.78c.11.12.23.26.33.39l.92,0c2,0,4.07-.08,6.11-.18-2-.09-4.07-.13-6.11-.17Z" style="fill:#FFA500"></path><path d="M90.5,385.6l.06.26c1.23,0,2.47-.07,3.71-.13C93,385.68,91.76,385.63,90.5,385.6Z" style="fill:#FFA500"></path><path d="M87.93,366.86c1,.05,2,.07,3,.11l2.81.06-.09-.34-2.72.06C90,366.78,88.94,366.81,87.93,366.86Z" style="fill:#FFA500"></path><path d="M85.1,349.81a.61.61,0,0,1,0,.14l1.83-.07C86.33,349.85,85.71,349.82,85.1,349.81Z" style="fill:#FFA500"></path><path d="M90.26,364.56c1,.05,2,.08,2.93.11a1.42,1.42,0,0,0,0-.22C92.18,364.49,91.22,364.51,90.26,364.56Z" style="fill:#FFA500"></path><path d="M105.14,290.75l-6.26.05,6.15,2.32a24.14,24.14,0,0,1-2.11,8L96.35,300l5.32,3.54A23.31,23.31,0,0,1,100,306l-3.9-.86,2.67,2.4a34.65,34.65,0,0,1-4.14,4l-3.59-2.42,2.52,3.27A52.62,52.62,0,0,1,84,318.19l13.8-48.51a40.42,40.42,0,0,1,5,9.32l-2.6.6,3.09.75a34.66,34.66,0,0,1,1,3.35l-6.28.9,6.83,2A28.69,28.69,0,0,1,105.14,290.75Z" style="fill:#455a64"></path><path d="M119.47,310.29l-2.9-2.13,2.09,3.4a19.48,19.48,0,0,1-3.31,3.63l-3.84-4.29,1.7,5.87a19.65,19.65,0,0,1-2.54,1.35L108.06,315l.81,3.86A26.12,26.12,0,0,1,104,320l-2.48-6-.15,6.23c-.85.06-1.74.09-2.66.08l-1-4.07-1.28,4a61.09,61.09,0,0,1-12.25-2.16l38.22-16.64A21.51,21.51,0,0,1,119.47,310.29Z" style="fill:#37474f"></path><path d="M84.2,318.18a70.54,70.54,0,0,1-12-9.58l3.7-3.67-5.09,2.23a46.68,46.68,0,0,1-3.19-3.81l3.7-4-5.21,1.91c-.75-1.12-1.42-2.24-2-3.35l7-4.71-8.83.81a35.11,35.11,0,0,1-2.14-7.91h0l9.47-4.77-9.82.82c0-.71,0-1.41,0-2.11l5.47-1.15L59.83,278a39.9,39.9,0,0,1,.76-5.09l8.17-.3-7.5-2.34a42.2,42.2,0,0,1,6.2-12.95Z" style="fill:#37474f"></path><path d="M68.52,316.27l.57-4.73-2.62,4.23h0c-.76-.2-1.52-.41-2.29-.65l1-3.44L63,314.74c-1.24-.4-2.48-.85-3.71-1.36l1.86-4.27-4,3.35a36.34,36.34,0,0,1-6.47-3.85l4.43-6L48.74,307a24.06,24.06,0,0,1-4-4.58l4.61-5-5.81,3.06a23.15,23.15,0,0,1-1.33-3l7.37-5.75-8.44,1.58a25.93,25.93,0,0,1-.35-4.41L46.65,287l-5.8-.29a41.73,41.73,0,0,1,2-9.95s16.65,30.94,41.36,41.38A77.16,77.16,0,0,1,68.52,316.27Z" style="fill:#455a64"></path><path d="M74.31,324.76,72.8,323l.9,2.06c-.58.22-1.16.42-1.72.59L70.6,323,70.54,326a18.72,18.72,0,0,1-2.48.39l-.75-4.63-1.15,4.71a18.72,18.72,0,0,1-5.24-.82L60.79,322l-1.13,3.21a21.7,21.7,0,0,1-2-.9l1.3-4.27-2.78,3.45a26.14,26.14,0,0,1-3.26-2.35l1.43-2.74-2.14,2.13-1-1,1-1.57-1.66.94a30.74,30.74,0,0,1-4-5.14c13.89,8.12,37.77,4.37,37.77,4.37A34.64,34.64,0,0,1,74.31,324.76Z" style="fill:#37474f"></path><path d="M108.16,329.75,107.08,328l.26,2.05a16.53,16.53,0,0,1-2.28.56l-.63-3.34-.52,3.51a15.86,15.86,0,0,1-3.57,0l-.31-3.37-1.44,3.05a16.63,16.63,0,0,1-2.34-.75l.73-2.81-1.67,2.4a18,18,0,0,1-1.78-.94l1.14-3.44-3,2.21c-.58-.42-1.15-.88-1.73-1.39l1.24-1.76-1.92,1.15a40.26,40.26,0,0,1-5.77-6.87s17.58,8.8,30.46,8.07A18.5,18.5,0,0,1,108.16,329.75Z" style="fill:#455a64"></path><path d="M81.32,332.85l-2.68-1.58,2,2.69A13,13,0,0,1,79,336l-2.23-1.25,1.52,1.93a11.56,11.56,0,0,1-1,.77L74.58,335,76,338.32a13.65,13.65,0,0,1-3.51,1.31l-1.74-2.24.49,2.45a16.81,16.81,0,0,1-1.69.15l-1-2.36,0,2.36a19.1,19.1,0,0,1-5.43-.86c12.66-5,21-19.59,21-19.59C84.07,325.52,83,329.81,81.32,332.85Z" style="fill:#455a64"></path><path d="M92.13,326.05a5.06,5.06,0,1,1-5.24-4.87A5.07,5.07,0,0,1,92.13,326.05Z" style="fill:#FFA500"></path><path d="M92.13,326.05a5.06,5.06,0,1,1-5.24-4.87A5.07,5.07,0,0,1,92.13,326.05Z" style="opacity:0.4"></path><path d="M87.6,321.72a5.06,5.06,0,1,1-5.24-4.87A5.06,5.06,0,0,1,87.6,321.72Z" style="fill:#FFA500"></path><path d="M87.6,321.72a5.06,5.06,0,1,1-5.24-4.87A5.06,5.06,0,0,1,87.6,321.72Z" style="opacity:0.30000000000000004"></path><path d="M92.62,320.62a5.06,5.06,0,1,1-5.24-4.87A5,5,0,0,1,92.62,320.62Z" style="fill:#FFA500"></path><path d="M92.62,320.62a5.06,5.06,0,1,1-5.24-4.87A5,5,0,0,1,92.62,320.62Z" style="opacity:0.2"></path><path d="M412.82,319.2A205.77,205.77,0,0,1,398.73,390c-8.4,21.13-62.1,43-76.84,59.69h24.52s57.22-40.85,61.9-59.21c10.42-40.94,6.36-71.9,6.36-71.9Z" style="fill:#FFA500"></path><path d="M412.82,319.2A205.77,205.77,0,0,1,398.73,390c-8.4,21.13-62.1,43-76.84,59.69h24.52s57.22-40.85,61.9-59.21c10.42-40.94,6.36-71.9,6.36-71.9Z" style="opacity:0.30000000000000004"></path><path d="M363.29,437l-.55.44-2.91,0c-2,0-4.09-.09-6.12-.18,2-.1,4.08-.14,6.12-.18Z" style="fill:#FFA500"></path><path d="M358.8,429.93c-1,.06-2,.08-3.05.13l-3.06.05c-1.31,0-2.63,0-3.95.05.25-.15.49-.29.73-.45,1.07,0,2.14,0,3.22.05l3.06.06C356.77,429.86,357.79,429.88,358.8,429.93Z" style="fill:#FFA500"></path><path d="M351.93,431.5l-3.06.12-2.57.06.53-.34,2,.05Z" style="fill:#FFA500"></path><path d="M395.23,409a3.07,3.07,0,0,1-.25.26c-1.22,0-2.43-.07-3.65-.12C392.62,409.08,393.93,409.05,395.23,409Z" style="fill:#FFA500"></path><path d="M399.15,404.78c-.11.12-.23.26-.33.39l-.92,0c-2,0-4.07-.08-6.11-.18,2-.09,4.07-.13,6.11-.17Z" style="fill:#FFA500"></path><path d="M409.5,385.6l-.06.26c-1.23,0-2.47-.07-3.71-.13C407,385.68,408.24,385.63,409.5,385.6Z" style="fill:#FFA500"></path><path d="M412.07,366.86c-1,.05-2,.07-3.05.11l-2.81.06.09-.34,2.72.06C410,366.78,411.06,366.81,412.07,366.86Z" style="fill:#FFA500"></path><path d="M414.9,349.81a.61.61,0,0,0,0,.14l-1.83-.07C413.67,349.85,414.29,349.82,414.9,349.81Z" style="fill:#FFA500"></path><path d="M409.74,364.56c-1,.05-2,.08-2.93.11a1.42,1.42,0,0,1,.05-.22C407.82,364.49,408.78,364.51,409.74,364.56Z" style="fill:#FFA500"></path><path d="M394.86,290.75l6.26.05L395,293.12a24.14,24.14,0,0,0,2.11,8l6.57-1.16-5.32,3.54A24.93,24.93,0,0,0,400,306l3.9-.86-2.67,2.4a34.65,34.65,0,0,0,4.14,4l3.59-2.42-2.52,3.27a52.62,52.62,0,0,0,9.55,5.78l-13.8-48.51a40.42,40.42,0,0,0-5,9.32l2.6.6-3.09.75a34.66,34.66,0,0,0-1,3.35l6.28.9-6.83,2A28.69,28.69,0,0,0,394.86,290.75Z" style="fill:#455a64"></path><path d="M380.53,310.29l2.9-2.13-2.09,3.4a19.48,19.48,0,0,0,3.31,3.63l3.84-4.29-1.7,5.87a19.65,19.65,0,0,0,2.54,1.35l2.61-3.13-.81,3.86A26.12,26.12,0,0,0,396,320l2.48-6,.15,6.23c.85.06,1.74.09,2.66.08l1-4.07,1.28,4a61.09,61.09,0,0,0,12.25-2.16l-38.22-16.64A21.51,21.51,0,0,0,380.53,310.29Z" style="fill:#37474f"></path><path d="M415.8,318.18a70.54,70.54,0,0,0,12.05-9.58l-3.7-3.67,5.09,2.23a46.68,46.68,0,0,0,3.19-3.81l-3.7-4,5.21,1.91c.75-1.12,1.42-2.24,2-3.35l-7-4.71,8.83.81a35.11,35.11,0,0,0,2.14-7.91h0l-9.47-4.77,9.82.82c0-.71,0-1.41,0-2.11l-5.47-1.15,5.37-.81a39.9,39.9,0,0,0-.76-5.09l-8.17-.3,7.5-2.34a42.2,42.2,0,0,0-6.2-12.95Z" style="fill:#37474f"></path><path d="M431.48,316.27l-.57-4.73,2.62,4.23h0c.76-.2,1.52-.41,2.29-.65l-1.05-3.44,2.27,3.06c1.24-.4,2.48-.85,3.71-1.36l-1.86-4.27,4,3.35a36.34,36.34,0,0,0,6.47-3.85l-4.43-6,6.37,4.42a24.06,24.06,0,0,0,4-4.58l-4.61-5,5.81,3.06a23.15,23.15,0,0,0,1.33-3l-7.37-5.75,8.44,1.58a25.93,25.93,0,0,0,.35-4.41L453.35,287l5.8-.29a41.73,41.73,0,0,0-2-9.95s-16.65,30.94-41.36,41.38A77.16,77.16,0,0,0,431.48,316.27Z" style="fill:#455a64"></path><path d="M425.69,324.76,427.2,323l-.9,2.06c.58.22,1.16.42,1.72.59L429.4,323l.06,2.94a18.72,18.72,0,0,0,2.48.39l.75-4.63,1.15,4.71a18.72,18.72,0,0,0,5.24-.82l.13-3.65,1.13,3.21a21.7,21.7,0,0,0,2-.9l-1.3-4.27,2.78,3.45a26.14,26.14,0,0,0,3.26-2.35l-1.43-2.74,2.14,2.13,1-1-1-1.57,1.66.94a30.74,30.74,0,0,0,4-5.14c-13.89,8.12-37.77,4.37-37.77,4.37A34.64,34.64,0,0,0,425.69,324.76Z" style="fill:#37474f"></path><path d="M391.84,329.75l1.08-1.76-.26,2.05a16.53,16.53,0,0,0,2.28.56l.63-3.34.52,3.51a15.86,15.86,0,0,0,3.57,0l.31-3.37,1.44,3.05a16.63,16.63,0,0,0,2.34-.75l-.73-2.81,1.67,2.4a18,18,0,0,0,1.78-.94l-1.14-3.44,3,2.21c.58-.42,1.15-.88,1.73-1.39l-1.24-1.76,1.92,1.15a40.26,40.26,0,0,0,5.77-6.87S398.91,327,386,326.28A18.5,18.5,0,0,0,391.84,329.75Z" style="fill:#455a64"></path><path d="M418.68,332.85l2.68-1.58-2,2.69A13,13,0,0,0,421,336l2.23-1.25-1.52,1.93a11.56,11.56,0,0,0,1,.77l2.76-2.49L424,338.32a13.65,13.65,0,0,0,3.51,1.31l1.74-2.24-.49,2.45a16.81,16.81,0,0,0,1.69.15l1-2.36,0,2.36a19.1,19.1,0,0,0,5.43-.86c-12.66-5-21-19.59-21-19.59C415.93,325.52,417,329.81,418.68,332.85Z" style="fill:#455a64"></path><path d="M407.87,326.05a5.06,5.06,0,1,0,5.24-4.87A5.07,5.07,0,0,0,407.87,326.05Z" style="fill:#FFA500"></path><path d="M407.87,326.05a5.06,5.06,0,1,0,5.24-4.87A5.07,5.07,0,0,0,407.87,326.05Z" style="opacity:0.4"></path><path d="M412.4,321.72a5.06,5.06,0,1,0,5.24-4.87A5.06,5.06,0,0,0,412.4,321.72Z" style="fill:#FFA500"></path><path d="M412.4,321.72a5.06,5.06,0,1,0,5.24-4.87A5.06,5.06,0,0,0,412.4,321.72Z" style="opacity:0.30000000000000004"></path><path d="M407.38,320.62a5.06,5.06,0,1,0,5.24-4.87A5,5,0,0,0,407.38,320.62Z" style="fill:#FFA500"></path><path d="M407.38,320.62a5.06,5.06,0,1,0,5.24-4.87A5,5,0,0,0,407.38,320.62Z" style="opacity:0.2"></path></g><g id="freepik--Plane--inject-20"><g style="opacity:0.6000000000000001"><polygon points="233.56 73.83 52.12 112.72 214.94 64.67 233.56 73.83" style="fill:#ebebeb"></polygon><path d="M208.24,85.49c-9.65,2.45-19.36,4.61-29.08,6.66-4.86,1-9.73,2-14.6,3L149.93,98l-14.66,2.67c-4.9.84-9.79,1.73-14.7,2.51-9.8,1.62-19.63,3.14-29.51,4.36,9.65-2.45,19.35-4.61,29.08-6.66,4.86-1.05,9.73-2,14.6-3L149.37,95,164,92.37c4.89-.84,9.78-1.73,14.69-2.51C188.53,88.24,198.36,86.72,208.24,85.49Z" style="fill:#ebebeb"></path><path d="M139.52,82.38q-9.11,3.41-18.34,6.46c-6.14,2.06-12.32,4-18.5,5.93s-12.39,3.76-18.63,5.51-12.49,3.44-18.8,5q9.12-3.42,18.34-6.47c6.14-2.06,12.32-4,18.5-5.93s12.4-3.75,18.63-5.51S133.22,83.92,139.52,82.38Z" style="fill:#ebebeb"></path></g><path d="M238.14,75.26c-.35-.4-5.21-3.8-5.57-4.05l.83-.14S237.84,74.84,238.14,75.26Z" style="fill:#FFA500"></path><path d="M238.14,75.26c-.35-.4-5.21-3.8-5.57-4.05l.83-.14S237.84,74.84,238.14,75.26Z" style="fill:#fff;opacity:0.5"></path><path d="M238.16,75.29h0c0,.09-.37.16-.74.21h0a3,3,0,0,1-1.05,0c-.1-.07-3.61-1.82-5.76-2.9l-.08,0h0l-.3-.15L229.3,72l-.34-.17,3.61-.62,3.3,2.33.14.11.4.28a19.63,19.63,0,0,1,1.73,1.33v0Z" style="fill:#FFA500"></path><g style="opacity:0.1"><path d="M238.16,75.29h0c0,.09-.37.16-.74.21h0a3,3,0,0,1-1.05,0c-.1-.07-3.7-1.87-5.84-2.94.35.17,5,2.39,5.9,1.33a19.63,19.63,0,0,1,1.73,1.33v0Z"></path></g><path d="M285.71,79.25h0c0,.49-2.66.64-3,.54s-29.35-11.51-29.35-11.51L264,64.06l.31.22.13.09c2,1.36,7.83,5.43,12.95,9l.31.22.4.28C281.64,76.35,284.72,78.51,285.71,79.25Z" style="fill:#FFA500"></path><path d="M285.71,79.25c-2.59-1.93-19.5-13.65-21.72-15.19l1.35-.53s19.7,15,20.3,15.58A.21.21,0,0,1,285.71,79.25Z" style="fill:#FFA500"></path><path d="M285.71,79.25c-2.59-1.93-19.5-13.65-21.72-15.19l1.35-.53s19.7,15,20.3,15.58A.21.21,0,0,1,285.71,79.25Z" style="fill:#fff;opacity:0.5"></path><g style="opacity:0.5"><path d="M285.71,79.25h0c0,.49-2.66.64-3,.54s-29.35-11.51-29.35-11.51L264,64.06s-2.63,3,3.62,7.65c4.26,3.16,8.8,3.82,10.48,2.16C281.64,76.35,284.72,78.51,285.71,79.25Z" style="opacity:0.1"></path></g><path d="M261.57,72c-.83.4-1.72.71-1.79-.11,0-.34.24-.71,1.56-1.34.31-.15,1.07-.48,1.3.2S261.88,71.87,261.57,72Z" style="fill:#FFA500"></path><path d="M261.57,72c-.83.4-1.72.71-1.79-.11,0-.34.24-.71,1.56-1.34.31-.15,1.07-.48,1.3.2S261.88,71.87,261.57,72Z" style="opacity:0.1"></path><path d="M268.28,74.77c-.82.4-1.71.71-1.78-.11,0-.34.24-.71,1.56-1.34.31-.15,1.07-.48,1.29.2S268.59,74.62,268.28,74.77Z" style="fill:#FFA500"></path><path d="M268.28,74.77c-.82.4-1.71.71-1.78-.11,0-.34.24-.71,1.56-1.34.31-.15,1.07-.48,1.29.2S268.59,74.62,268.28,74.77Z" style="opacity:0.1"></path><path d="M275,77.52c-.82.4-1.72.71-1.78-.12,0-.33.24-.7,1.56-1.33.31-.15,1.07-.49,1.29.2S275.31,77.37,275,77.52Z" style="fill:#FFA500"></path><path d="M275,77.52c-.82.4-1.72.71-1.78-.12,0-.33.24-.7,1.56-1.33.31-.15,1.07-.49,1.29.2S275.31,77.37,275,77.52Z" style="opacity:0.1"></path><path d="M272.81,70.3c-.81,1.43-2.65,2-3.81,2.42-3.09,1.23-5.33,1.93-6.44-.88a3.42,3.42,0,0,1-.24-1c-.18-2.12,2-3.18,3.12-3.76h0c1.34-.71,2.29-1.17,3-1.47a5.46,5.46,0,0,1,2.2-.56c.62,0,2,.13,2.5,2.72A3.71,3.71,0,0,1,272.81,70.3Z" style="fill:#FFA500"></path><path d="M272.84,68.28c0,1.58-1,2.86-2.2,2.86s-2.2-1.28-2.2-2.86,1-2.85,2.2-2.85S272.84,66.71,272.84,68.28Z" style="fill:#263238"></path><path d="M272.59,68.28a2,2,0,1,1-1.95-2.52A2.28,2.28,0,0,1,272.59,68.28Z" style="fill:#455a64"></path><path d="M226.72,67.53l-.51.18-1.15.42-4-1.71c-3.85-1.66-8.41-3.6-9.28-3.89l.11,0,.1,0,.13,0,.08,0,.3.1.31.1.88.29.29.1.28.09.16,0,.47.16.32.11L219.32,65l.39.13,1.52.51,2.63.89.37.13,1.14.38h0l.29.09.13,0,.07,0Z" style="fill:#FFA500"></path><path d="M226.72,67.53l-.51.18-1.15.42-4-1.71c-3.85-1.66-8.41-3.6-9.28-3.89l.11,0,.1,0,.13,0,.08,0,.3.1.31.1.88.29.29.1.28.09.16,0,.47.16.32.11L219.32,65l.39.13,1.52.51,2.63.89.37.13,1.14.38h0l.29.09.13,0,.07,0Z" style="fill:#fff;opacity:0.5"></path><path d="M225.06,68.13,222,69.25s-6.87-3.19-11-5.18l0,0-.06,0-1.18-.58a9.29,9.29,0,0,1-1.7-.94,8.65,8.65,0,0,1,3.68,0h0l.07,0c.84.28,5.13,2.11,8.89,3.72l.08,0,.31.13Z" style="fill:#FFA500"></path><g style="opacity:0.1"><path d="M225.06,68.13,222,69.25s-6.87-3.19-11-5.18c.68.28,7.63,3.35,9.35,2.92a1,1,0,0,0,.73-.57Z"></path></g><path d="M233,63.75l-7.46,3.59s.07-6.4.13-11c0-.16,0-.31,0-.47v-.37c0-1.58,0-2.85,0-3.42,0-1.85.22-2.23.71-1.93a22.68,22.68,0,0,1,3.33,3c.54.7,1.73,4.9,2.5,7.79a.19.19,0,0,1,0,.07c.05.17.09.33.13.49C232.74,62.83,233,63.75,233,63.75Z" style="fill:#FFA500"></path><g style="opacity:0.1"><path d="M233,63.75l-7.46,3.59s.07-6.4.13-11c1.1,2.45,3.27,5.8,6.75,5.2C232.74,62.83,233,63.75,233,63.75Z"></path></g><path d="M220.29,71.25c-.77-1.92,2.5-3.67,6.2-5.33S266.7,48.16,272,46.72s11.46.53,12.5,3.56c1.56,4.53-5,8.33-28.67,18.14-3.1,1.28-17,4.61-24.76,4.63C222.73,73.08,220.67,72.2,220.29,71.25Z" style="fill:#FFA500"></path><path d="M220.29,71.25c-.77-1.92,2.5-3.67,6.2-5.33S266.7,48.16,272,46.72s11.46.53,12.5,3.56c1.56,4.53-5,8.33-28.67,18.14-3.1,1.28-17,4.61-24.76,4.63C222.73,73.08,220.67,72.2,220.29,71.25Z" style="fill:#fff;opacity:0.5"></path><path d="M255.82,68.42c-3.1,1.28-17,4.61-24.76,4.63-8.33,0-10.39-.85-10.77-1.8s.3-2,1.59-2.88a1.26,1.26,0,0,0,.1.56c.35.86,2.21,1.67,9.77,1.64,7.08,0,17.25-5.75,20.06-6.92,21.46-8.89,29.84-9.63,28.42-13.75-.62-1.79-3.22-3.17-6.29-3.55,4.76-.57,9.63,1.27,10.55,3.93C286.05,54.81,279.47,58.61,255.82,68.42Z" style="opacity:0.1"></path><polygon points="231.87 64.91 232.7 64.55 232.7 65.78 231.87 66.15 231.87 64.91" style="fill:#455a64"></polygon><polygon points="233.4 64.25 234.29 63.87 234.29 65.1 233.4 65.49 233.4 64.25" style="fill:#455a64"></polygon><polygon points="234.98 63.56 235.88 63.18 235.88 64.41 234.98 64.8 234.98 63.56" style="fill:#455a64"></polygon><polygon points="236.57 62.88 237.47 62.49 237.47 63.72 236.57 64.11 236.57 62.88" style="fill:#455a64"></polygon><polygon points="238.16 62.19 239.05 61.8 239.05 63.04 238.16 63.42 238.16 62.19" style="fill:#455a64"></polygon><polygon points="239.75 61.5 240.64 61.12 240.64 62.35 239.75 62.74 239.75 61.5" style="fill:#455a64"></polygon><polygon points="241.33 60.82 242.23 60.43 242.23 61.66 241.33 62.05 241.33 60.82" style="fill:#455a64"></polygon><polygon points="242.92 60.13 243.81 59.74 243.81 60.98 242.92 61.36 242.92 60.13" style="fill:#455a64"></polygon><polygon points="244.51 59.44 245.4 59.05 245.4 60.29 244.51 60.68 244.51 59.44" style="fill:#455a64"></polygon><polygon points="246.09 58.76 246.99 58.37 246.99 59.6 246.09 59.99 246.09 58.76" style="fill:#455a64"></polygon><polygon points="247.68 58.07 248.58 57.68 248.58 58.91 247.68 59.3 247.68 58.07" style="fill:#455a64"></polygon><polygon points="249.27 57.38 250.16 56.99 250.16 58.23 249.27 58.62 249.27 57.38" style="fill:#455a64"></polygon><polygon points="250.86 56.69 251.75 56.31 251.75 57.54 250.86 57.93 250.86 56.69" style="fill:#455a64"></polygon><polygon points="252.44 56.01 253.34 55.62 253.34 56.85 252.44 57.24 252.44 56.01" style="fill:#455a64"></polygon><polygon points="254.03 55.32 254.93 54.93 254.93 56.17 254.03 56.55 254.03 55.32" style="fill:#455a64"></polygon><polygon points="255.62 54.63 256.51 54.24 256.51 55.48 255.62 55.87 255.62 54.63" style="fill:#455a64"></polygon><polygon points="257.2 53.95 258.1 53.56 258.1 54.79 257.2 55.18 257.2 53.95" style="fill:#455a64"></polygon><polygon points="258.79 53.26 259.69 52.87 259.69 54.1 258.79 54.49 258.79 53.26" style="fill:#455a64"></polygon><polygon points="260.38 52.57 261.28 52.18 261.28 53.42 260.38 53.81 260.38 52.57" style="fill:#455a64"></polygon><polygon points="261.97 51.88 262.86 51.5 262.86 52.73 261.97 53.12 261.97 51.88" style="fill:#455a64"></polygon><polygon points="263.56 51.2 264.45 50.81 264.45 52.04 263.56 52.43 263.56 51.2" style="fill:#455a64"></polygon><polygon points="266.04 50.12 266.04 51.36 265.14 51.74 265.14 50.51 266.04 50.12" style="fill:#455a64"></polygon><polygon points="267.63 49.44 267.63 50.67 266.73 51.06 266.73 49.82 267.63 49.44" style="fill:#455a64"></polygon><polygon points="269.21 48.75 269.21 49.98 268.32 50.37 268.32 49.14 269.21 48.75" style="fill:#455a64"></polygon><polygon points="270.8 48.06 270.8 49.3 269.9 49.68 269.9 48.45 270.8 48.06" style="fill:#455a64"></polygon><path d="M275,47.56a4.37,4.37,0,0,1,1.66-.78v.82Z" style="fill:#455a64"></path><path d="M278.56,46.59v1.13c-.42,0-.83-.06-1.25-.08v-1A6.51,6.51,0,0,1,278.56,46.59Z" style="fill:#455a64"></path><path d="M282.55,48.19c-.35,0-.67-.07-1-.11s-.64-.1-.95-.13c-.46-.07-.91-.12-1.36-.16V46.66a6.13,6.13,0,0,1,1.59.43,5.23,5.23,0,0,1,.91.47,3.93,3.93,0,0,1,.42.29C282.3,48,282.43,48.07,282.55,48.19Z" style="fill:#455a64"></path><path d="M254,58.24,243.51,63.3s-16.72-9-28.72-15.51l0,0h0c-6.41-3.5-11.3-6.22-11.22-6.32.2-.27,3.42-.24,4.7-.07a1.9,1.9,0,0,1,.36.07c.54.15,19.46,7.16,32.71,12.07Z" style="fill:#FFA500"></path><g style="opacity:0.1"><path d="M254,58.24,243.51,63.3s-16.72-9-28.72-15.51c.94.47,22.45,11.31,25.26,9.68,1.06-.61,1.34-2.2,1.26-3.95Z"></path></g><path d="M255.57,57.54l-3.13,1.51c-8-3.35-41.24-16.5-44-17.6a.32.32,0,0,0-.09,0l-.07,0h0a1.9,1.9,0,0,1,.36.07C209.44,41.68,255.57,57.54,255.57,57.54Z" style="fill:#FFA500"></path><path d="M255.57,57.54l-3.13,1.51c-8-3.35-41.24-16.5-44-17.6a.32.32,0,0,0-.09,0l-.07,0h0a1.9,1.9,0,0,1,.36.07C209.44,41.68,255.57,57.54,255.57,57.54Z" style="fill:#fff;opacity:0.5"></path><path d="M233,57.79c-1,.5-2.14.89-2.22-.15,0-.42.29-.87,1.95-1.67.38-.19,1.33-.6,1.61.26S233.42,57.6,233,57.79Z" style="fill:#FFA500"></path><path d="M233,57.79c-1,.5-2.14.89-2.22-.15,0-.42.29-.87,1.95-1.67.38-.19,1.33-.6,1.61.26S233.42,57.6,233,57.79Z" style="opacity:0.1"></path><path d="M224.13,53.29c-1,.5-2.15.89-2.23-.14,0-.43.3-.88,1.95-1.68.39-.18,1.34-.6,1.62.26S224.52,53.1,224.13,53.29Z" style="fill:#FFA500"></path><path d="M224.13,53.29c-1,.5-2.15.89-2.23-.14,0-.43.3-.88,1.95-1.68.39-.18,1.34-.6,1.62.26S224.52,53.1,224.13,53.29Z" style="opacity:0.1"></path><path d="M215.2,48.74c-1,.46-2,.83-2.08-.13,0-.4.28-.82,1.82-1.56.36-.18,1.25-.56,1.51.24S215.56,48.56,215.2,48.74Z" style="fill:#FFA500"></path><path d="M215.2,48.74c-1,.46-2,.83-2.08-.13,0-.4.28-.82,1.82-1.56.36-.18,1.25-.56,1.51.24S215.56,48.56,215.2,48.74Z" style="opacity:0.1"></path><path d="M246.32,56.77c-.81,1.44-2.65,2-3.81,2.42-3.09,1.24-5.33,1.93-6.44-.88a3.42,3.42,0,0,1-.24-1c-.18-2.12,2-3.17,3.12-3.76h0c1.34-.71,2.29-1.17,3-1.46a5.53,5.53,0,0,1,2.2-.57c.63,0,2,.14,2.5,2.72A3.71,3.71,0,0,1,246.32,56.77Z" style="fill:#FFA500"></path><ellipse cx="244.15" cy="54.76" rx="2.2" ry="2.85" style="fill:#263238"></ellipse><path d="M246.1,54.76a2,2,0,1,1-1.95-2.52A2.29,2.29,0,0,1,246.1,54.76Z" style="fill:#455a64"></path><path d="M212.84,62.86l-.31-.1Z" style="fill:#FFA500"></path></g><g id="freepik--Sign--inject-20"><polygon points="431.61 183.52 421.01 190.48 394.64 190.22 399.26 174.88 425.81 174.54 431.61 183.52" style="fill:#455a64"></polygon><polygon points="425.81 174.54 423.56 173.42 397.77 173.69 393.22 189.79 394.64 190.22 399.26 174.88 425.81 174.54" style="fill:#37474f"></polygon><polygon points="441.79 220.08 431.43 224.89 388.4 209.55 393.78 194.46 436.81 209.8 441.79 220.08" style="fill:#FFA500"></polygon><polygon points="436.81 209.8 438.58 211.73 443.31 221.28 431.76 226.58 388.31 210.97 388.4 209.55 431.43 224.89 441.79 220.08 436.81 209.8" style="fill:#FFA500"></polygon><polygon points="436.81 209.8 438.58 211.73 443.31 221.28 431.76 226.58 388.31 210.97 388.4 209.55 431.43 224.89 441.79 220.08 436.81 209.8" style="opacity:0.1"></polygon><polygon points="339.73 178.13 345.99 187.68 390.65 197.33 394.02 181.67 349.37 172.01 339.73 178.13" style="fill:#263238"></polygon><polygon points="339.73 178.13 345.99 187.68 390.65 197.33 389.68 199.92 345.99 190.43 339.89 181.34 339.73 178.13" style="fill:#37474f"></polygon><path d="M340.71,383.27l-12-3.6L398.12,159.5c.88-2.79,2.91-4.61,4.58-4.11l.27.08c1.67.51,2.35,3.15,1.54,5.95Z" style="fill:#FFA500"></path><path d="M340.71,383.27l-12-3.6L398.12,159.5c.88-2.79,2.91-4.61,4.58-4.11l.27.08c1.67.51,2.35,3.15,1.54,5.95Z" style="opacity:0.4"></path><g style="opacity:0.30000000000000004;mix-blend-mode:multiply"><path d="M399.2,163.61q-4,12.06-7.87,24.16c-2.6,8.06-5.17,16.13-7.64,24.23s-4.88,16.22-7.13,24.39l-1.65,6.13-1.54,6.16c-.95,4.11-1.79,8.27-2.88,12.38-2.19,8.2-5,16.2-7.91,24.16l-8.82,23.83a370.93,370.93,0,0,0-14.58,48.63c1.72-8.3,3.83-16.51,6.24-24.63s5.16-16.14,8-24.11l8.75-23.86c2.87-8,5.66-16,7.82-24.15,1.06-4.08,1.92-8.23,2.89-12.36l1.57-6.16,1.66-6.14c2.29-8.16,4.72-16.27,7.23-24.37Q390.87,187.63,399.2,163.61Z"></path><path d="M401.09,159.08l-2.35,9.86-2.51,9.83c-1.7,6.54-3.44,13.07-5.27,19.58s-3.8,13-5.87,19.42-4.23,12.84-6.8,19.1l1.74-4.76,1.63-4.8c1.07-3.2,2.13-6.41,3.11-9.64,2-6.45,3.89-12.95,5.71-19.45s3.68-13,5.43-19.54Z"></path><path d="M346.74,334.23c1.38-3,2.71-6.06,4-9.11s2.63-6.1,3.91-9.17c2.55-6.13,5-12.31,7.24-18.55s4.5-12.5,6.34-18.87c.48-1.59.94-3.19,1.33-4.8s.86-3.21,1.18-4.84.71-3.24,1-4.87l.74-4.92a108.44,108.44,0,0,1-3.95,19.52c-1.79,6.4-3.92,12.71-6.19,18.95s-4.8,12.4-7.41,18.51S349.66,328.26,346.74,334.23Z"></path><path d="M383.69,227.12q-2.2,5.46-4.3,11c-1.39,3.67-2.75,7.36-3.91,11.1a36.73,36.73,0,0,0-1.35,5.69,5,5,0,0,0,0,1.39.36.36,0,0,0,.09.19s0,0,.1,0a2.19,2.19,0,0,0,.45-.46,15.18,15.18,0,0,0,1.41-2.53,37,37,0,0,0,1.94-5.53,31.56,31.56,0,0,0,1.06-5.79,34.21,34.21,0,0,1-2.66,11.47,13.67,13.67,0,0,1-1.4,2.64,2.42,2.42,0,0,1-.58.57.52.52,0,0,1-.58,0,.79.79,0,0,1-.26-.45,5.68,5.68,0,0,1,0-1.54,36.44,36.44,0,0,1,1.33-5.78c1.19-3.76,2.56-7.45,4-11.1S382.05,230.69,383.69,227.12Z"></path><path d="M360.06,308.48c-2.87,7.4-5.8,14.77-8.94,22-.78,1.82-1.57,3.64-2.4,5.45s-1.75,3.56-2.56,5.36a73.71,73.71,0,0,0-4,11.14,38.45,38.45,0,0,0-1.13,5.79,8.94,8.94,0,0,0,.11,2.88,1.73,1.73,0,0,0,.66,1.09c.21.11.3.13.48,0a1.84,1.84,0,0,0,.48-.45,22,22,0,0,0,2.55-5.28c.68-1.85,1.27-3.74,1.79-5.65a48.17,48.17,0,0,0,1.25-5.79,14.15,14.15,0,0,0,.14-1.46,2.7,2.7,0,0,0-.19-1.36c-.09-.14-.29-.12-.47,0a2.12,2.12,0,0,0-.48.51,8.38,8.38,0,0,0-.75,1.26,35.77,35.77,0,0,0-2.07,5.54c-.28.95-.53,1.91-.73,2.88-.1.49-.18,1-.24,1.47a3.64,3.64,0,0,0,0,1.47,3.51,3.51,0,0,1-.07-1.48q.08-.74.21-1.47c.18-1,.41-1.94.66-2.9a34.7,34.7,0,0,1,2-5.62,10.05,10.05,0,0,1,.75-1.31,2.64,2.64,0,0,1,.54-.57.79.79,0,0,1,.41-.16.5.5,0,0,1,.44.2,2.91,2.91,0,0,1,.26,1.54c0,.5-.07,1-.13,1.49A50,50,0,0,1,347.4,351c-.51,1.92-1.09,3.82-1.76,5.7-.33.93-.69,1.86-1.1,2.77a12.48,12.48,0,0,1-1.47,2.64,2.16,2.16,0,0,1-.6.56.9.9,0,0,1-.48.13,1.26,1.26,0,0,1-.44-.16,2.16,2.16,0,0,1-.89-1.36,9.37,9.37,0,0,1-.13-3,32.23,32.23,0,0,1,1.14-5.87,72.8,72.8,0,0,1,4.14-11.18c.83-1.81,1.78-3.55,2.59-5.35s1.64-3.61,2.44-5.42Q355.55,319.49,360.06,308.48Z"></path><path d="M332,380.64q.87-4.18,1.83-8.36l1.95-8.33,2.07-8.3c.7-2.77,1.44-5.52,2.2-8.27-.58,2.8-1.19,5.58-1.83,8.36l-1.95,8.33-2.07,8.3C333.47,375.13,332.73,377.89,332,380.64Z"></path><path d="M335.12,381.59a23.88,23.88,0,0,0,2.52-6.52,19.44,19.44,0,0,0,.38-6.92,28,28,0,0,1,0-7.09,60.7,60.7,0,0,1,1.17-7c-.41,2.32-.67,4.66-.87,7a30.8,30.8,0,0,0,.15,7,17.65,17.65,0,0,1-.39,7.09A19.55,19.55,0,0,1,335.12,381.59Z"></path><path d="M357.8,316q-2.94,8.19-5.18,16.6c-.74,2.8-1.4,5.63-1.86,8.48s-.87,5.75-1.46,8.59-1.23,5.68-2.07,8.47a40.48,40.48,0,0,1-3.21,8.12,51,51,0,0,0-3.85,7.77,82.07,82.07,0,0,0-2.84,8.21,61.34,61.34,0,0,1,6.31-16.19,39.84,39.84,0,0,0,3.12-8.05q1.2-4.17,2.09-8.42c.6-2.84,1.08-5.69,1.53-8.56s1.19-5.69,2-8.49C353.88,326.94,355.75,321.44,357.8,316Z"></path><path d="M403.64,155.83q-1.08,5.14-2.29,10.26c-.79,3.42-1.65,6.81-2.5,10.21s-1.79,6.78-2.77,10.15-2,6.72-3.28,10c.55-1.67,1.05-3.34,1.52-5s.94-3.37,1.39-5.07c.9-3.38,1.8-6.77,2.65-10.16L401,166Z"></path></g></g><g id="freepik--World--inject-20"><path d="M449.72,471H50.28a203.62,203.62,0,0,1,14.54-24.57q2.61-3.8,5.4-7.48c.61-.81,1.24-1.64,1.87-2.44,1.26-1.62,2.55-3.22,3.85-4.8s2.65-3.14,4-4.69l2-2.29c1.37-1.53,2.78-3,4.2-4.52s2.87-3,4.34-4.4c.72-.73,1.47-1.44,2.22-2.16A218.69,218.69,0,0,1,119.14,392q5.14-3.6,10.52-6.91c1.19-.74,2.39-1.46,3.61-2.18,2.42-1.43,4.87-2.81,7.35-4.16l3-1.61,1.69-.86c.57-.29,1.14-.59,1.72-.87L148,375l.46-.22,2.81-1.36h0c1.2-.57,2.4-1.14,3.62-1.68,1-.45,2-.88,2.93-1.3s2-.85,2.94-1.25h0l.52-.22,2.45-1c1.31-.52,2.65-1.05,4-1.56l2-.76q7-2.61,14.34-4.77l1.83-.52a.16.16,0,0,0,.09,0l.54-.15q1.47-.42,2.94-.81l1.05-.27c1-.28,2-.54,3.05-.79,1.29-.32,2.58-.64,3.86-.93s2.37-.55,3.58-.81l.61-.12,2-.41.22-.05.41-.08.81-.16.09,0,.91-.17.12,0,1.74-.33H208c.54-.11,1.08-.2,1.63-.3l4.36-.72h.09c1.36-.2,2.72-.4,4.08-.58a7.9,7.9,0,0,1,.85-.11c1.2-.18,2.42-.32,3.62-.46l.44-.05c1.14-.14,2.26-.25,3.41-.36.69-.09,1.4-.16,2.1-.21.48-.05,1-.1,1.46-.12,1.08-.11,2.16-.19,3.26-.26l.39,0c1-.09,2.07-.16,3.11-.21,1.35-.07,2.68-.14,4-.18,1.07-.05,2.14-.09,3.21-.1.59,0,1.18,0,1.77,0,1.39,0,2.78,0,4.17,0q9.11,0,18,.67l3.3.28,1.61.16,1.66.16q2.32.25,4.62.54c1.72.21,3.43.45,5.14.7l3.22.49c3.22.53,6.41,1.11,9.57,1.76,2.11.44,4.2.9,6.29,1.39q4.69,1.11,9.3,2.4c2,.57,4.1,1.18,6.12,1.81a226.21,226.21,0,0,1,45.88,20,221.05,221.05,0,0,1,42.66,32q1.72,1.68,3.43,3.38c2.27,2.28,4.47,4.61,6.63,7s4.26,4.79,6.3,7.25h0a208.14,208.14,0,0,1,26,39.65Z" style="fill:#455a64"></path><g style="opacity:0.2"><path d="M290.09,370c-1.66,2.94-4.33,3.52-7.43,3.73s-6-1.37-9.28.58-6.61,12.51-10.95,13.1-12-9.38-13.62-12.32,3.72-9.2,1.19-12.12-7-2.36-14-2.94c-.44,0-.91-.06-1.41-.07-7.57-.2-21.87,2.18-21.3,4.58.16.68,2,1,4.6,1.12,7,.41,19.51-.14,20,3.56.61,5.09-17.14,13.69-20.22,12.91s-7.24-5.86-11.77-6.45-8.27,2.93-11.12,3.32a7.08,7.08,0,0,1-3.47-.74c-2.05-.79-4.37-1.9-7.08-1.41-4.33.77-5.37,4.3-7.64,5.67s-7.64,1.37-8.25,4.49c-.3,1.57,1.38,2.79,3.38,3.86s4.35,2,5.28,3c1.86,2-2.27,8.61-.41,10s13.42-8.23,16.3-10.57,5.37-12.52,11.56-12.33,8.25,10.18,10.32,11.15,6.61-2.34,13.41-1S239.73,406.6,241,410.89s4.13,8.62,1.66,10.38-13.63-1.18-15.06-3.91,7.42-6.85,6.8-7.82-5.78-2.36-8.45-.83-3.92,4.72-6.82,5.51-10.53-7.43-12.58-5.09,2,9.79,4.12,11.55,9.7,2.74,10.31,4.69-5.15,6.25-12.17,5.87-12.79-5.48-15.48-3.33-1.23,7.82-3.09,9.78-12,.59-16.92,5.66-7.23,12.71-12.18,17-7.21-1.17-13.82,4.89a18,18,0,0,0-4,5.74H71.83c0-.28,0-.56-.08-.84-1.22-11.74,3.1-24.06,11.77-34,0,0,1.24-6.46,2.47-10.56s27.86-20.54,31-25.23c1.29-2,1.73-5,2.19-8.34q5.14-3.6,10.52-6.91c1.19-.74,2.39-1.46,3.61-2.18,2.42-1.43,4.87-2.81,7.35-4.16l3-1.61,1.69-.86c.57-.29,1.14-.59,1.72-.87L148,375l.46-.22c.93-.47,1.87-.92,2.81-1.36h0L152,373c1.92-.91,3.87-1.78,5.83-2.63l2.94-1.26h0l.52-.22,2.45-1c1.31-.52,2.65-1.05,4-1.56l2-.76q7-2.61,14.34-4.77l1.83-.52a.16.16,0,0,0,.09,0l.54-.15q1.47-.42,2.94-.81l1.05-.27c1-.28,2-.54,3.05-.79,1.29-.32,2.58-.64,3.86-.93s2.37-.55,3.58-.81l.61-.12,2-.41.22-.05,1.22-.24.09,0,.91-.17.12,0,1.74-.33H208c.54-.11,1.08-.2,1.63-.3l4.36-.72h.09c1.36-.2,2.72-.4,4.08-.58a7.9,7.9,0,0,1,.85-.11c1.2-.18,2.42-.32,3.62-.46l.44-.05c1.14-.14,2.26-.25,3.41-.36.69-.09,1.4-.16,2.1-.21.48-.05,1-.1,1.46-.12,1.08-.11,2.16-.19,3.26-.26l.39,0c1-.09,2.07-.16,3.11-.21,1.35-.07,2.68-.14,4-.18,1.07-.05,2.14-.09,3.21-.1.59,0,1.18,0,1.77,0,1.39,0,2.78,0,4.17,0q9.11,0,18,.67c.21.28.42.53.62.78a.4.4,0,0,0,.1.12,18.2,18.2,0,0,0,3.93,3.61,40.51,40.51,0,0,0,9.38,4.3C289.89,363.57,291.75,367.09,290.09,370Z"></path><path d="M295.46,371.59c-1.08,2.46,3.92,3.33,6.81,4.89s5.15,2.54,6.81,0-.62-5.48-2.89-6.06S296.49,369.24,295.46,371.59Z"></path><path d="M334.46,394.47c1.9,1.9,5.16,1.56,7.43,4.3s1.44,7.43,4.33,8.8,4.95,0,5.16-1.95-4.13-6.85-3.71-7.83,6,1.37,7.22,4.31-1.24,7,1.65,7.82,2.27-2.74,3.51-3.52,3.92-.39,3.71-2.74-3.51-7.43-6.19-9.19-4.74-3.72-9.28-4.69-8.88-.2-11.15,1.56S333.28,393.3,334.46,394.47Z"></path><path d="M423.74,431.32a3.43,3.43,0,0,1-1.16,2.06c-4.34,2.94-9.5-7.23-15.48-9.18s-8.67-9.2-9.9-7.63-.83,3.71-2.69,6.25-4.54,2-5.78,6.85,5.78,13.88,4.13,16.82-3.71,1.95-7,1.76-2.68,2.54-7,1.36-.62-6.25-7.43-12.31-9.08-7.24-7.63-10-.62-6.64,2.47-7,5.57,3.92,7.63,5.09,4.75-2.35,5-5.48-7.23-7.43-9.91-9.86-2.89-11.26-1.86-13,4.13-1.17,5-5.47c.48-2.53-3.74-6.76-7.31-9.81A218.67,218.67,0,0,1,423.74,431.32Z"></path><path d="M449.72,471H386.35c-1.65-3.19-4.07-7.17-4.22-10.21-.21-3.9,3.91-3.73,11.76-9.21s9.9-5.08,15.89-3.13A90,90,0,0,0,423,452c3.43.57,8.06,8.87,9.6,8.82,0,0,.07,0,.09,0,1.44-.4,1.66-2.94,2.27-6.65a8.21,8.21,0,0,1,2.57-4.2A203.43,203.43,0,0,1,449.72,471Z"></path></g><path d="M272.92,352.47c-1.41.13-2.8.3-4.19.46-4.16.51-8.26,1.13-12.33,1.88A206.09,206.09,0,0,0,234.62,360c-5.67,1.67-11.25,3.57-16.7,5.7a207.81,207.81,0,0,0-26.61,12.6q-8.46,4.79-16.37,10.3c-1.09.76-2.16,1.53-3.22,2.31A194,194,0,0,0,107.18,471H50.28a203.62,203.62,0,0,1,14.54-24.57q2.61-3.8,5.4-7.48c.61-.81,1.24-1.64,1.87-2.44,1.26-1.62,2.55-3.22,3.85-4.8s2.65-3.14,4-4.69l2-2.29c1.37-1.53,2.78-3,4.2-4.52s2.87-3,4.34-4.4c.72-.73,1.47-1.44,2.22-2.16A218.69,218.69,0,0,1,119.14,392q5.14-3.6,10.52-6.91c1.19-.74,2.39-1.46,3.61-2.18,2.42-1.43,4.87-2.81,7.35-4.16l3-1.61,1.69-.86c.57-.29,1.14-.59,1.72-.87L148,375l.46-.22,2.81-1.36h0L152,373l2.9-1.33q2.91-1.32,5.87-2.55h0l3-1.22c1.31-.52,2.65-1.05,4-1.56l2-.76q7-2.59,14.34-4.77l1.83-.52a.16.16,0,0,0,.09,0l.54-.15q1.47-.42,2.94-.81l1.05-.27c1-.28,2-.54,3.05-.79,1.29-.32,2.58-.64,3.86-.93s2.37-.55,3.58-.81l.61-.12,2-.41.22-.05,1.22-.24.09,0,.91-.17.12,0,1.74-.33H208c.54-.11,1.08-.2,1.63-.3l4.36-.72h.09c1.36-.2,2.72-.4,4.08-.58a7.9,7.9,0,0,1,.85-.11c1.2-.18,2.42-.32,3.62-.46l.44-.05c1.14-.14,2.26-.25,3.41-.36.69-.09,1.4-.16,2.1-.21.48-.05,1-.1,1.46-.12,1.08-.11,2.16-.19,3.26-.26l.39,0c1-.09,2.07-.16,3.11-.21,1.35-.07,2.68-.14,4-.18,1.07-.05,2.14-.09,3.21-.1.59,0,1.18,0,1.77,0,1.39,0,2.78,0,4.17,0q9.11,0,18,.67l3.3.28Z" style="opacity:0.1"></path><path d="M449.72,471H438.35c-1.81-3.46-3.74-6.86-5.75-10.21q-2.24-3.78-4.67-7.46A210.32,210.32,0,0,0,414,434.63a215.68,215.68,0,0,0-16.84-18.05,219.78,219.78,0,0,0-26.84-21.89q-7.59-5.28-15.69-9.93a229.16,229.16,0,0,0-82-28.22q-7.55-1.08-15.26-1.66c-.34,0-.67-.06-1-.07q-8.46-.63-17.11-.63A234.66,234.66,0,0,0,186,360.27l.54-.15q1.47-.42,2.94-.81l1.05-.27c1-.28,2-.54,3.05-.79,1.29-.32,2.58-.64,3.86-.93s2.37-.55,3.58-.81l.61-.12,2-.41.22-.05,1.22-.24.09,0,.91-.17.12,0,1.74-.33H208c.54-.11,1.08-.2,1.63-.3l4.36-.72h.09c1.36-.2,2.72-.4,4.08-.58a7.9,7.9,0,0,1,.85-.11c1.2-.18,2.42-.32,3.62-.46l.44-.05c1.14-.14,2.26-.25,3.41-.36.69-.09,1.4-.16,2.1-.21.48-.05,1-.1,1.46-.12,1.08-.11,2.16-.19,3.26-.26l.39,0c1-.09,2.07-.16,3.11-.21,1.35-.07,2.68-.14,4-.18,1.07-.05,2.14-.09,3.21-.1.59,0,1.18,0,1.77,0,1.39,0,2.78,0,4.17,0q9.11,0,18,.67l3.3.28,1.61.16,1.66.16q2.32.25,4.62.54c1.72.21,3.43.45,5.14.7l3.22.49c3.22.53,6.41,1.11,9.57,1.76,2.11.45,4.2.91,6.29,1.39q4.69,1.11,9.3,2.4c2,.57,4.1,1.18,6.12,1.81a226.21,226.21,0,0,1,45.88,20,221.05,221.05,0,0,1,42.66,32q1.72,1.68,3.43,3.38c2.27,2.28,4.47,4.61,6.63,7s4.26,4.79,6.3,7.25h0a208.14,208.14,0,0,1,26,39.65Z" style="fill:#fff;opacity:0.30000000000000004"></path></g><g id="freepik--Shadow--inject-20"><ellipse cx="250" cy="391.89" rx="105.32" ry="10.99" style="fill:#263238"></ellipse></g><g id="freepik--Character--inject-20"><path d="M352.74,376.05c-2.15.24-59.52-12.37-61.4-14.24-.73-.7.62-9.16,2.55-19.35l.06-.32c.39-2.09,8.35-37.77,8.35-37.77l38,8.86-9.24,36.64-.16.62s19.8,14.65,21.65,16.92S354.89,375.83,352.74,376.05Z" style="fill:#eb9481"></path><path d="M291.34,361.81c1.88,1.87,59.25,14.48,61.4,14.25s1.65-6.39-.19-8.65-21.65-16.92-21.65-16.92l.16-.62,1.33-4.12-37.15-8.44c-.41,1.49-1.23,4.53-1.29,4.84,0,.1,0,.21-.07.31C292,352.65,290.61,361.12,291.34,361.81Z" style="fill:#ebebeb"></path><path d="M352.75,376.05c-1.11.12-16.73-3.14-31.95-6.6-3.05-.69-6.09-1.39-9-2.07-10.83-2.55-19.74-4.85-20.47-5.57s.59-8.93,2.47-18.92c0-.14.05-.28.08-.43s.05-.22.06-.32H294l37.06,7.71-.15.63s19.8,14.65,21.65,16.92S354.89,375.82,352.75,376.05Z" style="fill:#FFA500"></path><path d="M352.58,373.69c-9.62-2.37-48.64-11-58.33-12.59-.08,0-.09,0,0,.06,9.48,2.55,48.57,10.85,58.31,12.68C352.75,373.88,352.78,373.74,352.58,373.69Z" style="fill:#263238"></path><path d="M335.15,350.88c-3.65-1.55-8.43-2-11.93.08-.14.08,0,.28.11.26a55.81,55.81,0,0,1,11.7.13A.25.25,0,0,0,335.15,350.88Z" style="fill:#263238"></path><path d="M337.54,353.14c-3.65-1.55-8.44-2-11.94.08-.14.08,0,.28.11.26a55.8,55.8,0,0,1,11.7.13A.25.25,0,0,0,337.54,353.14Z" style="fill:#263238"></path><path d="M339.92,355.4c-3.65-1.55-8.43-2-11.94.08-.13.08,0,.27.11.26a55.24,55.24,0,0,1,11.71.13A.25.25,0,0,0,339.92,355.4Z" style="fill:#263238"></path><path d="M332.8,343.11l-36.66-9s14.11-67.39,13.77-69.11c-.42-2.21-36-103.75-36-103.75h35.85s37,80.48,39.57,96.4C351.73,272.71,332.8,343.11,332.8,343.11Z" style="fill:#eb9481"></path><polygon points="294.07 222.53 332.95 209.06 309.77 161.25 273.92 161.25 294.07 222.53" style="fill:#455a64"></polygon><path d="M326.94,205.92c-6.29,1.35-28.27,8.33-30.5,9.53,0,0,0,.13,0,.13,2.52-.27,21.57-6,30.52-9.48C327.09,206.07,327,205.9,326.94,205.92Z" style="fill:#263238"></path><polygon points="309.43 161.25 293.73 221.51 273.92 161.25 309.43 161.25" style="fill:#263238"></polygon><path d="M313.54,391.19c-2.07.65-60.8-.43-63-1.89-.84-.54-1.19-9.11-1.3-19.47v-.33c0-2.13,1.87-37.94,1.87-37.94l37.69.6-1.66,37.62,0,.64s22.3,10.47,24.56,12.33S315.6,390.54,313.54,391.19Z" style="fill:#eb9481"></path><path d="M249.19,365.4c0,1.39,0,2.76,0,4.11v.32c.11,10.36.45,18.93,1.31,19.47,2.2,1.46,60.94,2.54,63,1.89s.36-6.58-1.89-8.44-24.55-12.33-24.55-12.33l0-.64.17-4C280.54,365.7,261.12,365.52,249.19,365.4Z" style="fill:#ebebeb"></path><path d="M313.54,391.19c-2.07.65-60.8-.43-63-1.89-.84-.54-1.19-9.11-1.3-19.47v-.33l37.9.28,0,.64s22.3,10.47,24.56,12.33S315.6,390.54,313.54,391.19Z" style="fill:#FFA500"></path><path d="M312.92,388.9c-9.9-.43-49.85-1.21-59.67-.88-.08,0-.08.06,0,.07,9.8.63,49.76,1.09,59.66,1C313.12,389.06,313.12,388.91,312.92,388.9Z" style="fill:#263238"></path><path d="M291.34,370c-3.88-.8-8.66-.29-11.68,2.43-.12.11,0,.27.16.24a54.7,54.7,0,0,1,11.5-2.18A.25.25,0,0,0,291.34,370Z" style="fill:#263238"></path><path d="M294.12,371.71c-3.88-.8-8.66-.29-11.68,2.43-.12.11,0,.27.16.23a54.68,54.68,0,0,1,11.5-2.17A.25.25,0,0,0,294.12,371.71Z" style="fill:#263238"></path><path d="M296.9,373.45c-3.88-.8-8.65-.28-11.68,2.44-.12.1,0,.27.16.23a54.68,54.68,0,0,1,11.5-2.17A.25.25,0,0,0,296.9,373.45Z" style="fill:#263238"></path><path d="M309.77,161.25s-4,23-6.89,31.48c0,0-6.78,2.4-7.54,2.86l-7.83,165.5H249.45s4.84-85.22,4.79-90.8c-.09-9,4.84-69.69,4.33-71.22-5.26-15.69,3.44-37.82,3.44-37.82Z" style="fill:#eb9481"></path><path d="M255.32,221.22l39.1.83.92-26.46,7.54-2.86s5.38-12.52,6.89-31.48H262s-9.61,19.85-4.54,36.5Z" style="fill:#455a64"></path><path d="M291.61,215.13c-10.35-.69-30.41-.84-33-.38-.06,0-.06.12,0,.13,2.56.52,26.92,1,33,.44C291.71,215.31,291.71,215.14,291.61,215.13Z" style="fill:#263238"></path><path d="M266.62,179.91c.71-.28,1.51-.35,2.24-.57a16.65,16.65,0,0,0,2.28-.8,17.39,17.39,0,0,0,3.92-2.36,9.13,9.13,0,0,0,2.55-3.71c.32-.76,1.7-4.79,1.71-4.82s.23-.06.23,0c0,.54-.81,4-1.08,4.85a8.81,8.81,0,0,1-2.55,4.26,14,14,0,0,1-4.38,2.52A14.55,14.55,0,0,1,269,180a6.6,6.6,0,0,1-2.42.15C266.48,180.12,266.52,179.94,266.62,179.91Z" style="fill:#263238"></path><path d="M304.07,191.55a72.44,72.44,0,0,0-11.4,5.31c-.14.08-.05.3.1.23,3.85-1.65,7.76-3.22,11.51-5.08A.25.25,0,0,0,304.07,191.55Z" style="fill:#263238"></path><path d="M305.29,165.19c0-.13-.24-.16-.24,0A126.81,126.81,0,0,1,304.4,178c-.17,2-1.77,12.91-5.2,12.11-.57-.13-.86-.7-.95-1.56a13.85,13.85,0,0,1,.45-3.36c.38-2.28.69-4.58.88-6.89a62.88,62.88,0,0,0-.13-12.94.12.12,0,0,0-.23,0,118.4,118.4,0,0,1-1,17.85c-.43,2.84-1.86,7.13,1.11,7.56s5-6.72,5.36-8.68A65.75,65.75,0,0,0,305.29,165.19Z" style="fill:#263238"></path><path d="M299.3,190.42a17.73,17.73,0,0,0-.78,2.26,5.22,5.22,0,0,0-.32,1.87.14.14,0,0,0,.24,0,6.76,6.76,0,0,0,.8-1.82c.26-.7.53-1.39.78-2.1A.38.38,0,0,0,299.3,190.42Z" style="fill:#263238"></path><path d="M291.43,133a35.07,35.07,0,0,1-7.49,2.6c4.92-5.21,7.45-18.9,6.58-17.07-4.17,8.79-12.29,17.61-14.62,17.61h0a26.24,26.24,0,0,1-15.1-6.93s0,0,0,0c6.13-5.76,9.06-19.6,8.56-18.83-5.4,8.24-13.56,11.92-14.76,11.63h0c-3.5-5.28-4.9-10.09-4.17-10.37,5.35-2.1,11.14-9.33,16.64-17.11h0c5.44-7.67,9-15.31,15.7-21.75,6.09-5.89,15.44-5.15,19.76-.45C313.86,84.56,294.8,131.38,291.43,133Z" style="fill:#263238"></path><path d="M301.72,71.48a9.41,9.41,0,0,1,2.43,3.12,22,22,0,0,1,1.46,3.71,37.4,37.4,0,0,1,1.23,7.87A59.42,59.42,0,0,1,305.48,102a94.15,94.15,0,0,1-4.74,15.16c-.49,1.23-1,2.44-1.56,3.65l-1.67,3.61L295.7,128l-1.9,3.47,1.69-3.58,1.62-3.61,1.55-3.64c.48-1.23,1-2.44,1.44-3.68a102.39,102.39,0,0,0,4.53-15.1,63.2,63.2,0,0,0,1.56-15.63,38.53,38.53,0,0,0-1-7.79A22.25,22.25,0,0,0,304,74.7,12.58,12.58,0,0,0,303,73,6.29,6.29,0,0,0,301.72,71.48Z" style="fill:#263238"></path><path d="M250.19,110a66.89,66.89,0,0,0,5.17-4.5q2.5-2.34,4.8-4.88c1.51-1.7,3-3.43,4.35-5.26s2.67-3.71,4-5.57c2.71-3.69,5.43-7.39,8.36-10.93,1.47-1.76,3-3.49,4.6-5.13a33,33,0,0,1,2.57-2.3,8.46,8.46,0,0,1,3-1.67,8.92,8.92,0,0,0-2.85,1.85c-.85.76-1.64,1.58-2.41,2.42-1.54,1.68-3,3.46-4.38,5.26-2.81,3.6-5.52,7.29-8.18,11-1.36,1.84-2.67,3.7-4.08,5.54a58.81,58.81,0,0,1-4.5,5.23A65.36,65.36,0,0,1,250.19,110Z" style="fill:#263238"></path><path d="M305.8,117.86c18.71,4.24,52.33,1.08,53.15-7.7.56-6.1-3.35-26.33-14.57-36.34-1.65-1.48-16.72,16.42-14.6,18.69a24.07,24.07,0,0,1,4.7,8.09c.34,1.16-19.05,4.82-26.85,6.61C293.21,110.53,300.59,116.68,305.8,117.86Z" style="fill:#eb9481"></path><path d="M309.81,118.62s2.76-5.21-1.33-11.57c0,0,8-7.41,15.68-3.71A13.62,13.62,0,0,1,326,119.65S320.37,124.39,309.81,118.62Z" style="fill:#FFA500"></path><path d="M321.47,113.83a1.33,1.33,0,1,0,1.33,1.33A1.33,1.33,0,0,0,321.47,113.83Zm0,2.43a1.1,1.1,0,1,1,1.1-1.1A1.09,1.09,0,0,1,321.47,116.26Zm-8-11.05a1.33,1.33,0,1,0,1.32,1.32A1.33,1.33,0,0,0,313.49,105.21Zm0,2.42a1.1,1.1,0,1,1,1.09-1.1A1.1,1.1,0,0,1,313.49,107.63ZM326.6,107a1.1,1.1,0,0,1-1.08-1.09,1.11,1.11,0,0,1,.16-.57l-.14-.2a1.29,1.29,0,0,0-.25.77,1.34,1.34,0,0,0,1.34,1.33h.07A1.6,1.6,0,0,0,326.6,107Z" style="fill:#fff"></path><rect x="156.46" y="263.99" width="56.5" height="105.15" transform="matrix(0.96, 0.27, -0.27, 0.96, 91.47, -37.89)" style="fill:#FFA500"></rect><g style="opacity:0.1"><rect x="167.11" y="277.93" width="56.5" height="0.64" transform="translate(81.61 -42.14) rotate(15.53)" style="fill:#020100"></rect><rect x="164.07" y="288.88" width="56.5" height="0.64" transform="translate(84.43 -40.92) rotate(15.53)" style="fill:#020100"></rect><rect x="161.03" y="299.83" width="56.5" height="0.64" transform="translate(87.25 -39.71) rotate(15.53)" style="fill:#020100"></rect><rect x="157.99" y="310.78" width="56.5" height="0.64" transform="translate(90.07 -38.5) rotate(15.53)" style="fill:#020100"></rect><rect x="154.94" y="321.72" width="56.5" height="0.64" transform="translate(92.88 -37.28) rotate(15.53)" style="fill:#020100"></rect><rect x="151.9" y="332.67" width="56.5" height="0.64" transform="matrix(0.96, 0.27, -0.27, 0.96, 95.7, -36.07)" style="fill:#020100"></rect><rect x="148.86" y="343.62" width="56.5" height="0.64" transform="matrix(0.96, 0.27, -0.27, 0.96, 98.52, -34.86)" style="fill:#020100"></rect><rect x="145.82" y="354.57" width="56.5" height="0.64" transform="translate(101.34 -33.64) rotate(15.53)" style="fill:#020100"></rect></g><rect x="182.54" y="263.99" width="4.36" height="105.15" transform="translate(91.47 -37.89) rotate(15.52)" style="fill:#263238"></rect><rect x="192" y="303.36" width="4.71" height="31.77" transform="matrix(0.96, 0.27, -0.27, 0.96, 92.54, -40.37)" style="fill:#263238"></rect><polygon points="199.97 367.2 186.89 363.57 179.56 369.7 197.86 374.79 199.97 367.2" style="fill:#263238"></polygon><polygon points="145.53 352.08 158.6 355.71 161.73 364.75 143.42 359.67 145.53 352.08" style="fill:#263238"></polygon><polygon points="186.07 381.32 190.91 382.66 196.64 374.45 186.2 371.55 187.92 376.93 186.07 381.32" style="fill:#263238"></polygon><path d="M180.82,382.83a6.92,6.92,0,1,0,8.51-4.82A6.92,6.92,0,0,0,180.82,382.83Z" style="fill:#37474f"></path><path d="M183.84,383.67A3.78,3.78,0,1,0,188.5,381,3.78,3.78,0,0,0,183.84,383.67Z" style="fill:#dbdbdb"></path><path d="M188,382.45c-.14.52-.2,1-.12,1s.26-.39.4-.91.2-1,.13-1S188.17,381.93,188,382.45Z" style="fill:#263238"></path><path d="M189.44,383.48c-.47.27-.82.55-.79.62s.46-.09.93-.36.83-.54.79-.61S189.91,383.22,189.44,383.48Z" style="fill:#263238"></path><path d="M189.71,385.22c-.52-.15-1-.2-1-.12s.39.25.91.4,1,.2,1,.12S190.23,385.36,189.71,385.22Z" style="fill:#263238"></path><path d="M188.68,386.64c-.27-.48-.54-.83-.61-.79s.09.46.35.93.54.82.61.78S188.94,387.11,188.68,386.64Z" style="fill:#263238"></path><path d="M186.94,386.91c.15-.53.2-1,.13-1s-.26.39-.41.91-.2,1-.12,1S186.8,387.43,186.94,386.91Z" style="fill:#263238"></path><path d="M185.53,385.87c.47-.26.82-.54.78-.61s-.45.09-.93.36-.82.54-.78.61S185.05,386.14,185.53,385.87Z" style="fill:#263238"></path><path d="M185.25,384.14c.53.14,1,.2,1,.12s-.38-.26-.91-.4-1-.2-1-.12S184.73,384,185.25,384.14Z" style="fill:#263238"></path><path d="M186.29,382.72c.27.47.54.83.61.79s-.09-.46-.36-.93-.54-.83-.61-.79S186,382.25,186.29,382.72Z" style="fill:#263238"></path><polygon points="150.16 371.34 145.32 370 144.64 360 155.08 362.91 150.83 366.63 150.16 371.34" style="fill:#263238"></polygon><path d="M153.88,375.34a6.92,6.92,0,1,1-4.82-8.52A6.92,6.92,0,0,1,153.88,375.34Z" style="fill:#37474f"></path><path d="M150.86,374.5a3.78,3.78,0,1,1-2.64-4.65A3.79,3.79,0,0,1,150.86,374.5Z" style="fill:#dbdbdb"></path><path d="M147.9,371.3c-.15.53-.33.94-.4.91s0-.46.12-1,.32-.93.4-.91S148.05,370.78,147.9,371.3Z" style="fill:#263238"></path><path d="M146.15,371.46c.27.47.43.89.36.93s-.35-.31-.61-.79-.43-.89-.36-.93S145.88,371,146.15,371.46Z" style="fill:#263238"></path><path d="M145,372.8c.52.15.93.33.9.41s-.46,0-1-.12-.93-.33-.91-.41S144.5,372.66,145,372.8Z" style="fill:#263238"></path><path d="M145.18,374.55c.47-.27.89-.43.93-.36s-.31.35-.79.62-.89.42-.93.35S144.71,374.82,145.18,374.55Z" style="fill:#263238"></path><path d="M146.52,375.68c.15-.53.33-.93.41-.91s0,.46-.12,1-.33.93-.41.91S146.38,376.2,146.52,375.68Z" style="fill:#263238"></path><path d="M148.27,375.52c-.26-.47-.42-.88-.35-.92s.34.31.61.78.42.89.35.93S148.54,376,148.27,375.52Z" style="fill:#263238"></path><path d="M149.4,374.18c-.52-.15-.93-.33-.91-.41s.46,0,1,.13.93.32.91.4S149.92,374.32,149.4,374.18Z" style="fill:#263238"></path><path d="M149.24,372.43c-.47.27-.88.43-.92.36s.31-.35.78-.61.89-.43.93-.36S149.72,372.16,149.24,372.43Z" style="fill:#263238"></path><rect x="202.63" y="263.46" width="9.43" height="4.74" transform="translate(78.71 -45.8) rotate(15.52)" style="fill:#263238"></rect><rect x="230.43" y="192.16" width="4.29" height="81.65" transform="translate(70.85 -53.75) rotate(15.53)" style="fill:#c7c7c7"></rect><rect x="239.4" y="192.31" width="6.11" height="10.28" transform="translate(61.7 -57.69) rotate(15.53)" style="fill:#263238"></rect><path d="M311.17,146.19l-1.4,15.06H262s13.61-37.61,27.15-50.3c5.39-5,10.39-3.55,14.2.32.87.88,11.38,18.23,12.27,24.43C316.35,140.8,311.17,146.19,311.17,146.19Z" style="fill:#eb9481"></path><path d="M311.17,146.19l-.34,3.69L267,148.67c5.18-12.14,13.67-29.79,22.14-37.72,5.39-5,10.39-3.55,14.2.32.87.88,11.38,18.24,12.27,24.44C316.35,140.8,311.17,146.19,311.17,146.19Z" style="fill:#FFA500"></path><path d="M311.17,146.19l-.05.58-.06.62v0a1,1,0,0,1,0,.24l0,.61-.15,1.6-35.89-1h-.22l-2.18-.06h-.23l-5.29-.15a201.24,201.24,0,0,1,13.35-26.43h0l.12-.21h0c.35-.57.71-1.13,1.07-1.67l.13-.2a52.76,52.76,0,0,1,7.45-9.21c5.39-5,10.39-3.55,14.2.32a16.49,16.49,0,0,1,1.15,1.67,1,1,0,0,0,.12.19c.32.53.7,1.14,1.11,1.83h0l.12.21h0c1.41,2.36,3.21,5.52,4.89,8.73a1.71,1.71,0,0,0,.13.23h0c.28.54.56,1.08.83,1.62l.12.24c1.9,3.82,3.46,7.48,3.78,9.71C316.35,140.8,311.17,146.19,311.17,146.19Z" style="fill:#FFA500"></path><path d="M300.26,125.72a1.33,1.33,0,1,0,0,2.65,1.33,1.33,0,0,0,0-2.65Zm0,2.42a1.1,1.1,0,1,1,1.09-1.09A1.1,1.1,0,0,1,300.26,128.14Zm-21.13,8a1.33,1.33,0,1,0,1.33,1.32A1.33,1.33,0,0,0,279.13,136.1Zm0,2.43a1.1,1.1,0,1,1,1.11-1.11A1.11,1.11,0,0,1,279.13,138.53Zm8.45-9.65a1.33,1.33,0,1,0,1.33,1.33A1.33,1.33,0,0,0,287.58,128.88Zm0,2.42a1.09,1.09,0,0,1-1.09-1.09,1.1,1.1,0,1,1,2.19,0A1.09,1.09,0,0,1,287.58,131.3ZM305.75,115h0a1,1,0,0,1-.38.08,1.09,1.09,0,0,1-1.1-1.09,1.07,1.07,0,0,1,.37-.82,1,1,0,0,1-.12-.19,1.31,1.31,0,0,0-.48,1,1.34,1.34,0,0,0,1.33,1.33,1.26,1.26,0,0,0,.51-.11Zm6,10.8a1.1,1.1,0,0,1-1-1.1.93.93,0,0,1,.15-.52h0a1.71,1.71,0,0,1-.13-.23,1.26,1.26,0,0,0-.25.76,1.34,1.34,0,0,0,1.33,1.34Zm-13.9,11.68a1.33,1.33,0,1,0,1.32,1.32A1.33,1.33,0,0,0,297.83,137.44Zm0,2.42a1.1,1.1,0,1,1,1.1-1.1A1.1,1.1,0,0,1,297.83,139.86ZM310,146.33a1.09,1.09,0,0,1,1.09,1.06l.06-.62a1.33,1.33,0,0,0-2.48.66,1.34,1.34,0,0,0,1.33,1.33,1.31,1.31,0,0,0,1-.48l0-.61a1.09,1.09,0,1,1-1.06-1.34Zm-17-31.29a1.33,1.33,0,1,0,1.33,1.33A1.33,1.33,0,0,0,292.93,115Zm0,2.43a1.1,1.1,0,1,1,1.1-1.1A1.1,1.1,0,0,1,292.93,117.47Zm-11.22,2.69-.13.2a1,1,0,0,1,.18.59,1.09,1.09,0,0,1-1.09,1.1.44.44,0,0,1-.16,0h0l-.12.21a1,1,0,0,0,.29,0A1.32,1.32,0,0,0,282,121,1.25,1.25,0,0,0,281.71,120.16Zm5.45,22.9a1.33,1.33,0,1,0,1.32,1.33A1.33,1.33,0,0,0,287.16,143.06Zm0,2.43a1.1,1.1,0,1,1,1.09-1.1A1.1,1.1,0,0,1,287.16,145.49Zm-13.53,1.94a1.33,1.33,0,0,0-1.33,1.33.13.13,0,0,0,0,.06h.23a.13.13,0,0,1,0-.06,1.1,1.1,0,0,1,2.2,0,.49.49,0,0,1,0,.12h.22a.57.57,0,0,0,0-.13A1.33,1.33,0,0,0,273.63,147.43Zm37.43-12a1.33,1.33,0,0,0,0,2.66,1.33,1.33,0,0,0,0-2.66Zm0,2.43a1.1,1.1,0,1,1,1.1-1.1A1.1,1.1,0,0,1,311.06,137.85Z" style="fill:#fff"></path><path d="M304.52,143.34a37.94,37.94,0,0,0-7.16.86c-1.18.27-2.34.62-3.51,1-.58.19-1.16.35-1.74.51a5.89,5.89,0,0,1-1.85.28.06.06,0,0,0,0,.11,10.18,10.18,0,0,0,1.74.12,9.84,9.84,0,0,0,1.7-.26c1.2-.26,2.39-.6,3.58-.88,2.42-.57,4.83-1.14,7.26-1.48C304.64,143.57,304.63,143.33,304.52,143.34Z" style="fill:#263238"></path><path d="M310.11,146.57a39.87,39.87,0,0,0-5.83-.89,26.37,26.37,0,0,0-2.95,0c-.47,0-.94,0-1.41.08s-1,.16-1.56.19c-.05,0-.06.11,0,.11.49,0,1,.09,1.46.12l1.47.08c1,.06,2,.13,2.94.17,2,.09,3.91.21,5.87.39C310.2,146.79,310.21,146.59,310.11,146.57Z" style="fill:#263238"></path><path d="M299.92,155.31a2.66,2.66,0,0,0-1,1.35,4.93,4.93,0,0,0-.32,1.64c0,.58.35.76.62.19a2.67,2.67,0,0,0,.2-.81,2,2,0,0,0-.07-.87,2.17,2.17,0,0,1,.21,1.82,1.11,1.11,0,0,1-.26.47.63.63,0,0,1-.62.17.68.68,0,0,1-.47-.43,1.47,1.47,0,0,1-.11-.52,4,4,0,0,1,.45-1.85A2.2,2.2,0,0,1,299.92,155.31Z" style="fill:#263238"></path><path d="M287.87,119.21c-4.16,6-21.71,30.93-22.22,32.23s-9.5,27.63-10.44,31.88c-.66,3-21.33-7-20.6-9.56,1.69-6,6.39-24.18,10.9-30.74,5.89-8.57,30.11-28.92,37.46-31.87S294.71,109.35,287.87,119.21Z" style="fill:#eb9481"></path><path d="M243.48,193.08c1.3-.78,1.71-.1.76,2.4s-6.86,11.62-3.51,13.41,11.5-11.18,12.77-15.47a71.33,71.33,0,0,0,1.82-11.69C253.23,183.94,247.64,188.8,243.48,193.08Z" style="fill:#eb9481"></path><path d="M237.48,168.2c-5.67,6.43-13.11,14.09-14.94,23.59a4.76,4.76,0,0,0,.37,3.11c-.89,4.24.84,5.94.84,5.94.37,4.2,2.39,5.69,2.39,5.69s-1,5,1.92,6.1c3.26,1.25,4-6,6.88-9.74,6.55-8.56,18.25-18.88,20.38-21.16Z" style="fill:#eb9481"></path><path d="M235.5,189.1a70.18,70.18,0,0,0-5.3,7.82,70,70,0,0,0-4,9.56.08.08,0,0,1-.16,0A36.71,36.71,0,0,1,235.39,189C235.5,188.9,235.6,189,235.5,189.1Z" style="fill:#263238"></path><path d="M230.91,184.4c-1.68,2.59-4.62,7.16-7.06,16.46,0,0-.06,0-.06,0a32.85,32.85,0,0,1,7-16.54C230.91,184.17,231,184.23,230.91,184.4Z" style="fill:#263238"></path><path d="M228.4,181.92a51.76,51.76,0,0,0-5.46,13s-.07,0-.06,0c1.22-6.18,2.37-8.28,5.38-13.06C228.36,181.64,228.51,181.74,228.4,181.92Z" style="fill:#263238"></path><path d="M261.45,163.7c.24-1.24.57-2.46.91-3.68s.71-2.42,1.11-3.61.82-2.39,1.31-3.55a10.35,10.35,0,0,1,.85-1.74c.39-.5.75-1,1.16-1.51-.26.58-.56,1.14-.84,1.7a9.68,9.68,0,0,0-.62,1.74c-.36,1.21-.76,2.4-1.15,3.6s-.82,2.38-1.28,3.55S262,162.55,261.45,163.7Z" style="fill:#263238"></path><path d="M277.23,114a13.55,13.55,0,0,0,9.06,8.25s-1.29,10.85-9.51,13a13.64,13.64,0,0,1-12-11.21S265.47,116.52,277.23,114Z" style="fill:#FFA500"></path><path d="M280.67,119.63A1.33,1.33,0,1,0,282,121,1.33,1.33,0,0,0,280.67,119.63Zm0,2.42a1.1,1.1,0,1,1,1.09-1.1A1.1,1.1,0,0,1,280.67,122.05Zm-9.4,4.77a1.33,1.33,0,1,0,1.33,1.32A1.33,1.33,0,0,0,271.27,126.82Zm0,2.42a1.1,1.1,0,1,1,1.09-1.1A1.09,1.09,0,0,1,271.27,129.24Zm-2.68-11.34a1.14,1.14,0,0,0-.17.15,1.08,1.08,0,0,1,.3.75,1.09,1.09,0,0,1-1.1,1.09,1,1,0,0,1-.72-.28.73.73,0,0,0-.14.18,1.26,1.26,0,0,0,.86.33A1.32,1.32,0,0,0,269,118.8,1.28,1.28,0,0,0,268.59,117.9Z" style="fill:#fff"></path><path d="M286.44,126.32s0-.07-.06,0c-.36.51-.75,1-1.15,1.48a8.05,8.05,0,0,1-.63.68,38,38,0,0,0,1.65-4.55s0-.06-.05,0a31,31,0,0,1-3.84,7.07,11.3,11.3,0,0,1-5.61,4.32.1.1,0,1,0,.05.19,11.76,11.76,0,0,0,5.9-3.87,14.27,14.27,0,0,0,1.74-2.79c.3-.3.61-.6.89-.92A10.44,10.44,0,0,0,286.44,126.32Z" style="fill:#263238"></path><path d="M292.48,110.32c.39.88,5.9,6.05,10.08,5.07,1.36-.32-.07-7.83-.07-7.83l0-.57.29-8.09L292.6,94.74l-1.46-.53s.06,2.22.17,5c0,.13,0,.25,0,.39s0,.3,0,.45c0,.41,0,.83,0,1.25s0,.63.06,1,.05.66.07,1A51.47,51.47,0,0,0,292.48,110.32Z" style="fill:#eb9481"></path><path d="M291.31,99.19a16.25,16.25,0,0,0,11.21,7.8l.29-8.09L292.6,94.74l-1.46-.53S291.2,96.43,291.31,99.19Z" style="fill:#263238"></path><path d="M311.73,85c3.34,13.81-4.55,17.37-7.53,18.09-2.7.65-12,2.52-16.74-10.86s.61-19.31,6.71-21.13S308.38,71.21,311.73,85Z" style="fill:#eb9481"></path><path d="M308.06,82.38c-.34,0-.65,0-1,0a1.59,1.59,0,0,1-1-.16.51.51,0,0,1-.15-.6,1.28,1.28,0,0,1,1.14-.58,1.86,1.86,0,0,1,1.27.36A.54.54,0,0,1,308.06,82.38Z" style="fill:#263238"></path><path d="M299,84.69c.31-.12.58-.28.88-.43a1.52,1.52,0,0,0,.82-.6.5.5,0,0,0-.14-.6,1.23,1.23,0,0,0-1.27,0,1.78,1.78,0,0,0-1,.9A.54.54,0,0,0,299,84.69Z" style="fill:#263238"></path><path d="M301.66,87.72s-.06.06-.05.1c.28.93.45,2-.31,2.57,0,0,0,.07,0,0C302.31,90,302.08,88.55,301.66,87.72Z" style="fill:#263238"></path><path d="M300.57,87c-1.53.29-.85,3.33.58,3.07S301.85,86.73,300.57,87Z" style="fill:#263238"></path><path d="M300,87.27c-.23.23-.42.59-.74.69s-.71-.13-1-.38c0,0-.06,0-.05,0,.13.58.49,1.13,1.13,1.07s.88-.66.9-1.27C300.23,87.31,300.1,87.17,300,87.27Z" style="fill:#263238"></path><path d="M307.07,86.26s.09,0,.09.07c.18,1,.54,2,1.46,2.14,0,0,0,0,0,0C307.55,88.61,307.09,87.19,307.07,86.26Z" style="fill:#263238"></path><path d="M307.7,85.09c1.49-.44,2.28,2.58.89,3S306.45,85.47,307.7,85.09Z" style="fill:#263238"></path><path d="M308.38,85.13c.28.1.59.33.88.27s.5-.45.63-.82c0,0,0,0,.06,0,.16.57.13,1.22-.4,1.48s-1-.17-1.27-.71C308.23,85.27,308.27,85.09,308.38,85.13Z" style="fill:#263238"></path><path d="M303.69,95.21c.27.18.55.45.9.42a2.39,2.39,0,0,0,1-.43s.07,0,.05,0a1.29,1.29,0,0,1-1.11.73,1,1,0,0,1-.9-.71S303.65,95.19,303.69,95.21Z" style="fill:#263238"></path><path d="M306.81,90.87s.53,1.36.69,2c0,.07-.14.13-.36.2h0a3.23,3.23,0,0,1-3.34-.45c-.06-.05,0-.14.08-.11a4.89,4.89,0,0,0,3.07.13c0-.19-1-2.29-.88-2.33a6.43,6.43,0,0,1,1.59,0c-1-2.86-2.49-5.53-3.47-8.4,0-.1.11-.17.16-.08a48.36,48.36,0,0,1,4.12,8.89C308.59,91.09,307.1,90.92,306.81,90.87Z" style="fill:#263238"></path><path d="M306.51,93a3.41,3.41,0,0,1-1.09,1.36,1.54,1.54,0,0,1-.9.27c-.71,0-.87-.62-.87-1.17a3.75,3.75,0,0,1,.11-.86A4.48,4.48,0,0,0,306.51,93Z" style="fill:#263238"></path><path d="M305.42,94.33a1.54,1.54,0,0,1-.9.27c-.71,0-.87-.62-.87-1.17A1.61,1.61,0,0,1,305.42,94.33Z" style="fill:#ff9cbd"></path><path d="M287.91,92.47a5.72,5.72,0,0,0,2.75-4.94c11.33-4.28,12.63-12.68,12.63-12.68,4.28,5.2,6.6,5.53,7.23,6.32,0,0-.86-5.51-4-8.85A11.5,11.5,0,0,0,292.67,70c-3.34,1.68-5.23,5.73-5.23,5.73s-3.64,1.73-4.12,5.32C282.51,87,287.91,92.47,287.91,92.47Z" style="fill:#263238"></path><path d="M303.31,74.33a9.88,9.88,0,0,1-.89,4.75,12.47,12.47,0,0,1-2.86,4l-.94.79c-.32.25-.68.46-1,.69a14.42,14.42,0,0,1-2.14,1.19c-.74.34-1.51.59-2.26.89l-2.35.6c.75-.3,1.51-.55,2.27-.83s1.47-.63,2.18-1a17.64,17.64,0,0,0,3.91-2.69,13,13,0,0,0,2.86-3.76A11.52,11.52,0,0,0,303.31,74.33Z" style="fill:#263238"></path><path d="M296.23,73.48c0,1.47-2.48,2.63-5.47,2.58s-5.41-1.28-5.39-2.76,2.47-2.63,5.47-2.58S296.25,72,296.23,73.48Z" style="fill:#FFA500"></path><path d="M295,73.15c0,1.13-1.88,2-4.16,2s-4.11-1-4.09-2.1,1.88-2,4.15-2S295.05,72,295,73.15Z" style="fill:#263238"></path><path d="M295,72l-.85-.38c1-2.15,3.49-2.25,4.69-2l-.19.91C298.57,70.53,295.94,70,295,72Z" style="fill:#FFA500"></path><path d="M285.33,92.36c0-.15-.59-3.69-.65-4.39s3.48-12.88,3.52-13l.4.24.44.15c-.23.68-3.41,11.68-3.44,12.5.06.64.64,4.26.65,4.3Z" style="fill:#FFA500"></path><path d="M308.07,69.37c0,1.48-2.47,2.63-5.47,2.59s-5.41-1.29-5.38-2.76,2.47-2.64,5.47-2.59S308.09,67.89,308.07,69.37Z" style="fill:#FFA500"></path><path d="M306.86,69.13c0,1.12-1.88,2-4.16,2s-4.11-1-4.09-2.1,1.88-2,4.16-2S306.88,68,306.86,69.13Z" style="fill:#263238"></path><path d="M289.91,92.78s-3.73-3.92-5.56-2.53,1.45,7.4,3.92,7.92a2.41,2.41,0,0,0,3-1.76Z" style="fill:#eb9481"></path><path d="M285.33,92s0,.06,0,.07A6.08,6.08,0,0,1,289,95.3a1.33,1.33,0,0,0-2-.06s0,.1.06.08a1.46,1.46,0,0,1,1.68.27,6.93,6.93,0,0,1,1,1.18c.1.13.35,0,.27-.15l0,0C289.67,94.49,287.61,91.82,285.33,92Z" style="fill:#263238"></path><path d="M347.37,76s-11.22-12.32-20-15.64c-3.66-1.39-20.09-3.75-20.8.21-.64,3.57,13.7,4,13.7,4s-14.43-1.7-14.41,2.75,16.28,2.77,16.28,2.77S307.3,68.68,308,73.27c.57,3.46,15.39,2.77,15.39,2.77s-12.79-1.13-12.36,2.46c.47,4,14.19,4.19,14.19,4.19.79,6.68,3.22,9.89,7,11.74C333.15,94.87,347.37,76,347.37,76Z" style="fill:#eb9481"></path><path d="M325.32,64.84c-1.69-.26-3.4-.54-5.1-.65s-3.42-.16-5.13-.11a28.42,28.42,0,0,0-6.63.83,62.46,62.46,0,0,1,11.74-.25c1.71.11,3.41.14,5.12.25C325.36,64.91,325.36,64.85,325.32,64.84Z" style="fill:#263238"></path><path d="M325,71c-2.17-.24-4.31-.56-6.5-.71s-4.24-.09-6.41-.08c-.17,0-.11.09.05.1,2.18.08,4.18.32,6.35.43s4.35.12,6.51.31A0,0,0,0,0,325,71Z" style="fill:#263238"></path><path d="M325.74,76.34a49.35,49.35,0,0,0-10-.31c-.16,0-.08.11.09.12,3.33,0,5.95,0,9.91.31C325.78,76.46,325.81,76.35,325.74,76.34Z" style="fill:#263238"></path></g></svg>